<?xml version="1.0" standalone="no"?>
<!DOCTYPE svg PUBLIC "-//W3C//DTD SVG 1.1//EN" "http://www.w3.org/Graphics/SVG/1.1/DTD/svg11.dtd" >
<svg xmlns="http://www.w3.org/2000/svg">
<metadata></metadata>
<defs>
<font id="homizioblack" horiz-adv-x="1296" >
<font-face units-per-em="2048" ascent="1638" descent="-410" />
<missing-glyph horiz-adv-x="561" />
<glyph unicode="AE" horiz-adv-x="1649" d="M28 0l696 1434h832v-203h-526v-412h489v-196h-489v-426h556v-197h-761v411h-369l-14 -27l-13 -27v1q-5 -11 -10.5 -22t-10.5 -22v1l-8 -16l-8 -16q-9 -19 -18.5 -38t-18.5 -39q-3 -8 -7 -16l-8 -16l-33 -66q-8 -15 -16 -31.5t-15 -32.5l-22 -44h-226zM518 608h31l-9 -17 l1 6l-1 -2q0 -5 -4 -13zM549 608h276v580q-54 -114 -106 -222.5t-105 -220.5l-32 -68q-16 -34 -33 -69zM825 1188v62l15 -15l11 6l-14 -27z" />
<glyph unicode="ae" horiz-adv-x="1592" d="M61 296q8 85 44 150t90.5 108t123.5 65t143 22q48 0 98 -10.5t98 -28.5v45q-5 45 -18 84t-33.5 67.5t-48.5 45t-64 16.5q-71 -1 -141.5 -32.5t-142.5 -97.5l-128 131q176 188 420 186q155 0 255 -103q8 -9 15 -19t15 -21q62 74 144.5 108.5t192.5 34.5q97 0 174 -38 t131 -105q46 -66 74 -158.5t28 -200.5v-92h-673q7 -63 24.5 -115.5t46.5 -87.5q71 -86 197 -86q133 0 287 125l98 -160q-105 -75 -204.5 -113.5t-198.5 -38.5q-234 0 -354 165q-43 -46 -84.5 -77.5t-84.5 -51t-88.5 -28t-96.5 -8.5q-75 0 -137.5 24t-108.5 66 q-93 91 -93 229zM260 294q0 -58 36 -94v1q40 -37 111 -37q54 0 100 15t80 39h-1q27 23 46 44t25 36v109q-48 29 -94.5 41t-91.5 12q-44 0 -82.5 -12t-67 -34t-45 -52.5t-16.5 -67.5zM742 962l15 -18q-8 10 -15 18zM760 941l11 -11zM872 639h457q-15 107 -68 164t-141 57 q-53 0 -96 -18t-77 -52h1q-27 -29 -46 -65.5t-30 -85.5z" />
<glyph unicode="OE" horiz-adv-x="1768" d="M57 702q0 166 48.5 304.5t137.5 241.5q94 100 226 154t292 54q28 0 61.5 -2t67.5 -5t66.5 -7t58.5 -8h664v-197h-527v-416h488v-196h-488v-428h556v-197h-696q-35 -5 -72 -9.5t-72.5 -7.5t-67 -4.5t-55.5 -1.5q-325 0 -508 205q-91 104 -135.5 232.5t-44.5 287.5z M264 713q0 -119 34 -220.5t92 -173.5h-1q63 -70 151.5 -107.5t202.5 -37.5q48 0 99 5t106 15v1049q-49 8 -96 12.5t-97 4.5q-115 0 -203.5 -38t-153.5 -112q-69 -78 -101.5 -175.5t-32.5 -221.5z" />
<glyph unicode="oe" horiz-adv-x="1774" d="M62 506q0 129 34.5 226.5t102.5 169.5q70 72 159.5 108.5t200.5 36.5q153 0 272 -84q35 -24 61.5 -52t47.5 -60q65 93 156 144.5t208 51.5q97 0 173.5 -36.5t130.5 -105.5q50 -65 76 -156t26 -204v-92h-673q7 -62 24 -114.5t48 -87.5q70 -87 195 -87q67 0 147.5 36.5 t172.5 108.5l81 -175q-114 -78 -215.5 -117.5t-198.5 -39.5q-117 0 -207.5 50.5t-150.5 144.5q-64 -97 -160 -146t-224 -49q-114 0 -203 39t-156 114q-61 72 -94.5 168t-33.5 208zM260 504q0 -80 18.5 -141.5t60.5 -108.5q78 -90 213 -90q68 0 122 23.5t90 63.5 q36 45 56 111.5t20 149.5q0 170 -73.5 259t-210.5 89t-216 -90q-42 -47 -61 -112.5t-19 -153.5zM1050 639h457q-15 107 -68 164t-141 57q-51 0 -95.5 -19t-77.5 -51q-25 -27 -45 -66t-30 -85z" />
<glyph unicode="&#xfb01;" horiz-adv-x="904" d="M32 838v186h164v103q0 165 88 258q90 92 222 92q68 0 203 -66l-87 -175q-36 26 -65.5 40.5t-54.5 14.5q-113 0 -113 -172v-95h455v-1024h-194v838h-261v-838h-193v838h-164z" />
<glyph unicode="&#xfb02;" horiz-adv-x="1134" d="M40 838v186h165v103q0 81 23 146.5t65 111.5q45 45 100 68.5t122 23.5q302 0 337 -229v-957q0 -65 17 -94.5t58 -29.5q19 0 59 18.5t106 56.5v-209q-54 -27 -97 -39t-78 -12q-258 0 -258 299v951q-14 26 -51 42.5t-97 16.5q-113 0 -113 -172v-95h242v-186h-242v-838h-193 v838h-165z" />
<glyph horiz-adv-x="0" />
<glyph unicode="&#xd;" horiz-adv-x="199" />
<glyph unicode=" "  horiz-adv-x="561" />
<glyph unicode="&#x09;" horiz-adv-x="561" />
<glyph unicode="&#xa0;" horiz-adv-x="561" />
<glyph unicode="!" horiz-adv-x="358" d="M53 112q0 28 9.5 51.5t27 40.5t40.5 26t50 9t50.5 -9t41 -26t27.5 -40.5t10 -51.5q0 -27 -10 -50.5t-27.5 -41t-41 -27t-50.5 -9.5t-50 9.5t-40.5 27t-27 41t-9.5 50.5zM76 1390h204l-8 -1030h-188z" />
<glyph unicode="&#x22;" horiz-adv-x="555" d="M69 1390h196l-9 -512h-180zM289 1390h197l-9 -512h-178z" />
<glyph unicode="#" horiz-adv-x="1171" d="M27 465l45 182h245q2 5 2.5 9.5t2.5 10.5q3 11 5 21.5t4 20.5q3 11 5 21.5t4 21.5q5 18 8 33t7 31l4 13q1 2 1 5t1 5q0 1 0.5 2t0.5 2h-262l44 181h254q3 13 6.5 26.5t6.5 26.5q1 8 2.5 16t3.5 16l3 15q3 13 6 25.5t5 25.5q5 24 11.5 53t13.5 56l-1 -2q1 5 2 8.5t2 8.5 l5 23q2 12 5 24.5t5 24t4 19.5h189l-82 -366h125q2 6 3 12.5t3 12.5q2 14 5.5 29t6.5 31v-1q3 17 8 35l-1 -1q2 8 4.5 17t4.5 18v9q2 12 5 24t6 26q3 11 5.5 23.5t5.5 26.5q5 24 12 55t12 49h186l-80 -366h247l-44 -181h-239q-2 -7 -4 -15.5t-4 -15.5q-2 -5 -2.5 -9.5 t-2.5 -9.5q-2 -9 -3.5 -18t-3.5 -18v-1q0 -1 -2 -5q-4 -16 -6 -26l-5 -21q-3 -11 -6 -24t-6 -33h254l-43 -182h-249v-3q-1 -2 -1.5 -6.5t-1.5 -6.5v1q-2 -8 -3.5 -17t-3.5 -17l1 1q-4 -16 -7.5 -33t-7.5 -32q-6 -26 -13 -58.5t-14 -65.5t-13.5 -64t-11.5 -54h-189l78 355 h-123q-3 -15 -6 -30.5t-7 -31.5l-12 -51l1 1q-4 -18 -8 -38t-9 -40l-9 -40q-4 -19 -8 -39t-9 -39q-2 -9 -5 -24.5t-5 -22.5h-188l77 355h-252zM506 647h119q4 14 8 29t8 28l-1 -2q1 4 1.5 8t1.5 9q2 8 4.5 17t4.5 17q1 2 1 5t0 1q2 8 3.5 16t3.5 15q3 14 5 24.5t4 24.5v1 q0 1 1 3h-121q-1 -3 -1 -5t-1 -5q-2 -6 -3.5 -13t-3.5 -13l-6 -28q-3 -14 -6 -27q-3 -15 -6 -27q-1 -4 -3 -14l-3 -18q-1 -6 -2.5 -11.5t-3 -13t-4.5 -21.5zM669 839q1 1 1 2q0 -1 -0.5 -2t-0.5 0z" />
<glyph unicode="$" horiz-adv-x="828" d="M34 95v225q89 -57 160.5 -90t130.5 -41v441q-81 48 -138 92.5t-86 80.5q-67 86 -67 208q0 71 23 133t68 113q38 44 89 74t111 47v171h180v-160q60 -4 116 -17.5t116 -38.5v-228q-69 41 -126.5 64.5t-105.5 29.5v-449q72 -40 126.5 -82.5t87.5 -81.5q37 -46 57 -99.5 t20 -113.5q0 -72 -24 -135t-66 -112q-35 -37 -89.5 -66.5t-111.5 -46.5v-199h-180v188q-69 8 -147 32.5t-144 60.5zM230 1021q0 -29 6 -54.5t20 -42.5q11 -16 29.5 -34t39.5 -34v323q-16 -8 -29 -18t-25 -22q-21 -23 -31 -53t-10 -65zM505 208q49 22 71.5 60t22.5 89 q0 29 -9.5 57t-23.5 50q-12 14 -26 28t-35 30v-314z" />
<glyph unicode="%" horiz-adv-x="1501" d="M50 1029q0 177 101 281h-1q99 105 261 105q77 0 141 -27.5t111 -78.5q46 -51 70 -121t24 -158q0 -160 -96 -270q-97 -109 -259 -109q-81 0 -146 28t-112 81q-46 54 -70 120.5t-24 148.5zM217 -29l835 1417h216l-833 -1417h-218zM243 1027q0 -94 44 -146q21 -23 50 -36 t67 -13q35 0 65 15t51 36l-1 -1q45 57 45 150q0 99 -41.5 148.5t-113.5 49.5q-78 0 -122 -53t-44 -150zM748 357q0 91 26 161.5t75 122.5q52 51 116 77t144 26t143 -27t111 -79q92 -104 92 -280q0 -162 -96 -270q-49 -55 -113 -83t-146 -28q-80 0 -145.5 27.5t-114.5 81.5 q-44 52 -68 119.5t-24 151.5zM942 355q0 -45 11.5 -83t32.5 -64q21 -22 50 -34.5t66 -12.5q77 0 117 48l-1 -1q46 58 46 152q0 99 -42 148.5t-115 49.5q-72 0 -119 -50q-23 -26 -34.5 -65.5t-11.5 -87.5z" />
<glyph unicode="&#x26;" horiz-adv-x="1400" d="M49 377q0 128 65 226.5t199 170.5q-57 75 -84.5 146t-27.5 140q0 74 25 135t79 113q106 103 266 103q149 0 239 -90q90 -89 90 -224q0 -71 -22.5 -131t-64.5 -111q-33 -38 -77.5 -73.5t-104.5 -66.5q27 -28 56 -58t63.5 -63.5t75.5 -73t92 -86.5q69 136 75 353h199 q-5 -143 -39.5 -264.5t-96.5 -226.5q37 -36 84 -80t92.5 -86.5t84.5 -78.5t60 -55l-299 4l-147 145q-94 -87 -199 -127.5t-230 -40.5q-107 0 -189 28.5t-142 83.5q-63 58 -92.5 129t-29.5 159zM247 383q0 -45 18 -85.5t47 -72.5q35 -28 86.5 -44.5t111.5 -16.5 q159 0 286 114q-124 121 -212 206t-143 144q-92 -48 -143 -110.5t-51 -134.5zM398 1058q0 -83 98 -202q52 25 94 54.5t66 52.5q23 26 34 57t11 67q0 32 -9 57.5t-28 42.5q-40 37 -101 37q-77 0 -121 -48q-44 -45 -44 -118z" />
<glyph unicode="'" horiz-adv-x="330" d="M67 1390h196l-8 -512h-180z" />
<glyph unicode="(" horiz-adv-x="609" d="M36 541q0 254 76 464.5t228 384.5h238q-176 -203 -262.5 -412.5t-86.5 -434.5q0 -421 338 -834h-231q-300 350 -300 832z" />
<glyph unicode=")" horiz-adv-x="606" d="M31 1390h236q151 -174 227 -385.5t76 -463.5q0 -244 -75 -451t-224 -381h-229q335 411 335 834q0 446 -346 847z" />
<glyph unicode="*" horiz-adv-x="818" d="M31 1019l56 189l235 -84v3q0 4 -0.5 7.5t-0.5 7.5q-2 24 -3 52t-3 54q-2 21 -2.5 43.5t-1.5 42.5q0 3 -0.5 8t-0.5 10v38h197l-12 -265q28 10 60.5 21.5t64 23t60.5 21.5t50 17l57 -189l-237 -60l6 -6q9 -12 17.5 -24t16.5 -24q13 -17 29.5 -39.5t34 -46t32.5 -45 t25 -35.5l-161 -110l-141 226q-2 -3 -3 -5l-2 -4q-9 -14 -17 -27t-16 -27v1q-3 -3 -5 -7l-2 -4q-10 -17 -23.5 -38t-26.5 -41q-5 -8 -11.5 -18t-13.5 -20.5t-13 -20t-9 -15.5l-161 112l163 219q-32 8 -69.5 17t-69.5 17q-11 3 -25 6l-27 7q-13 4 -25.5 7t-21.5 5zM425 879h1 q0 1 -1 0z" />
<glyph unicode="+" horiz-adv-x="946" d="M13 495v185h366v369h186v-369h368v-185h-368v-368h-186v368h-366z" />
<glyph unicode="," horiz-adv-x="428" d="M27 -221l167 535h213l-197 -535h-183z" />
<glyph unicode="-" horiz-adv-x="743" d="M71 495v191h600v-191h-600z" />
<glyph unicode="." horiz-adv-x="357" d="M51 112q0 28 10 51.5t27 40.5t40 26t50 9t50.5 -9t41 -26t27.5 -40.5t10 -51.5q0 -27 -10 -50.5t-27.5 -41t-41 -27t-50.5 -9.5t-50 9.5t-40 27t-27 41t-10 50.5z" />
<glyph unicode="/" horiz-adv-x="886" d="M8 -213l664 1603h207l-671 -1603h-200z" />
<glyph unicode="0" horiz-adv-x="991" d="M53 667q0 370 119 557t340 187q426 0 426 -711q0 -171 -28 -302.5t-85 -222.5v1q-120 -199 -340 -199q-208 0 -323 190v-1q-109 175 -109 501zM251 678q0 -127 19 -228t52 -169l-1 1q32 -56 77 -87t97 -31q51 0 95 33t76 87l-1 -1q35 70 55 172.5t20 231.5 q0 537 -235 537q-120 0 -187 -136t-67 -410z" />
<glyph unicode="1" horiz-adv-x="581" d="M4 1082v200l505 172v-1454h-193v1192q-4 -2 -5.5 -1.5t-5.5 -0.5q-6 -2 -13.5 -5t-13.5 -5h1q-43 -16 -92.5 -33.5t-91.5 -32.5q-7 -2 -20 -6.5t-27 -9.5t-26 -9.5t-18 -6.5z" />
<glyph unicode="2" horiz-adv-x="954" d="M54 0v166l363 386q39 43 76.5 85.5t69 80t55 68t35.5 49.5q52 84 52 183q0 98 -54.5 152t-156.5 54q-150 0 -374 -199v247q183 139 385 139q189 0 290 -105q54 -53 80 -120.5t26 -155.5q0 -73 -17 -140t-52 -126q-16 -26 -43.5 -62t-63.5 -79.5t-80 -93.5t-93 -104 q-23 -23 -44.5 -45.5t-42.5 -44.5q-21 -23 -37 -39.5t-31 -32.5t-31.5 -34t-40.5 -43h570v-186h-841z" />
<glyph unicode="3" horiz-adv-x="905" d="M55 68v226q219 -130 332 -130q133 0 202 63q71 65 71 166q0 115 -85.5 174t-244.5 59h-156v185h145q144 0 219 58.5t75 164.5q0 90 -51 140t-148 50q-52 0 -129 -32.5t-179 -96.5v223q94 48 173.5 70.5t147.5 22.5q86 0 156 -25.5t121 -71.5q51 -48 79 -113.5t28 -144.5 q0 -214 -150 -320q30 -15 54 -33.5t46 -41.5q46 -49 70.5 -113.5t24.5 -142.5q0 -97 -32.5 -175t-101.5 -138q-66 -57 -149.5 -86t-187.5 -29q-154 0 -330 91z" />
<glyph unicode="4" horiz-adv-x="997" d="M8 363v137l616 890h166v-842h170v-185h-170v-363h-193v363h-589zM264 548h333v478q-5 -8 -9.5 -14t-9.5 -14q-8 -11 -15.5 -23t-15.5 -23q-30 -43 -62 -88.5t-61 -88.5v1q-23 -33 -42.5 -60.5t-38.5 -54t-38 -54t-41 -59.5z" />
<glyph unicode="5" horiz-adv-x="884" d="M63 47v224q193 -107 301 -107q135 0 206 70t71 191q0 255 -299 255q-64 -1 -124 -21t-120 -65v796h687v-187h-493v-338q27 2 46 2h34q115 0 202.5 -29.5t146 -85t88.5 -135.5t30 -181q0 -202 -128 -330q-129 -129 -355 -129q-75 0 -148.5 17.5t-144.5 52.5z" />
<glyph unicode="6" horiz-adv-x="966" d="M49 617q0 177 35 317.5t104 249.5q149 227 413 227q59 0 119 -12.5t123 -35.5v-214q-82 38 -141.5 56.5t-102.5 18.5q-78 0 -142 -40t-109 -113q-33 -51 -55 -113.5t-34 -134.5q50 42 114 64.5t139 22.5q90 0 165 -33.5t130 -98.5q53 -63 80.5 -142.5t27.5 -174.5 q0 -106 -29.5 -191.5t-91.5 -153.5q-127 -139 -315 -139q-209 0 -322 173q-108 165 -108 467zM255 474q0 -63 18 -121t50 -104l-1 2q31 -38 74.5 -62.5t88.5 -24.5q99 0 164 76q36 41 52 91t16 113q0 128 -63 208h1q-30 35 -70.5 53.5t-91.5 18.5q-45 0 -90 -21.5t-78 -52.5 q-29 -38 -49.5 -85.5t-20.5 -90.5z" />
<glyph unicode="7" horiz-adv-x="939" d="M38 1203v187h882v-93l-529 -1297h-211l496 1203h-638z" />
<glyph unicode="8" horiz-adv-x="960" d="M50 357q0 118 55.5 208.5t171.5 158.5q-95 62 -139.5 140.5t-44.5 180.5q0 159 115 262h-1q111 104 290 104q164 0 266 -96h-1q55 -51 80.5 -112t25.5 -137q0 -209 -192 -334q116 -63 175 -153t59 -209q0 -178 -122 -285q-61 -53 -143.5 -80.5t-191.5 -27.5 q-91 0 -163 27t-128 78q-57 54 -84.5 121.5t-27.5 153.5zM247 360q0 -83 60 -140h-1q32 -27 76.5 -41.5t98.5 -14.5t98.5 14.5t76.5 40.5q26 29 41.5 64.5t15.5 74.5q0 93 -60 155t-179 107q-125 -52 -176 -112q-26 -27 -38.5 -64.5t-12.5 -83.5zM291 1058q0 -147 186 -233 q194 86 194 231q0 82 -49 124q-25 23 -59.5 33.5t-78.5 10.5q-39 0 -75 -12.5t-64 -36.5h1q-24 -23 -39.5 -54t-15.5 -63z" />
<glyph unicode="9" horiz-adv-x="969" d="M51 933q0 109 31 194t94 151q125 133 317 133q99 0 179 -44.5t136 -125.5q54 -80 82.5 -196.5t28.5 -266.5q0 -186 -35.5 -332.5t-104.5 -252.5q-72 -103 -178.5 -159.5t-240.5 -56.5q-49 0 -108.5 12.5t-131.5 40.5v213q172 -79 242 -79q147 0 235.5 99.5t114.5 303.5 q-49 -38 -113.5 -59.5t-138.5 -21.5q-89 0 -165 33t-130 95q-54 64 -84 144t-30 175zM250 951q0 -137 64 -208q32 -35 73 -53t93 -18q93 0 162 69q69 70 69 167q0 148 -70 234q-61 82 -159 82q-102 0 -165 -75q-35 -40 -51 -89t-16 -109z" />
<glyph unicode=":" horiz-adv-x="371" d="M57 112q0 28 10 51.5t27 40.5t40.5 26t50.5 9t50.5 -9t41 -26t27.5 -40.5t10 -51.5q0 -27 -10 -50.5t-27.5 -41t-41 -27t-50.5 -9.5t-50.5 9.5t-40.5 27t-27 41t-10 50.5zM57 914q0 27 10 50.5t27 40t40.5 26t50.5 9.5t50.5 -9.5t41 -26t27.5 -40t10 -50.5t-10 -50.5 t-27.5 -41t-41 -27.5t-50.5 -10t-50.5 10t-40.5 27.5t-27 41t-10 50.5z" />
<glyph unicode=";" horiz-adv-x="437" d="M26 -221l167 535h214l-198 -535h-183zM144 914q0 55 35 90.5t92 35.5q27 0 50 -9.5t40 -26t27 -40t10 -50.5t-10 -50.5t-27 -41t-40 -27.5t-50 -10q-29 0 -52 10t-40 27.5t-26 41t-9 50.5z" />
<glyph unicode="&#x3c;" horiz-adv-x="906" d="M3 539v81l855 480v-211l-546 -305q45 -23 89.5 -44t90.5 -43q29 -15 58 -29l58 -28q19 -10 37.5 -19.5t37.5 -18.5l41 -21l42 -20q21 -11 47 -23.5t45 -21.5v-212z" />
<glyph unicode="=" horiz-adv-x="1028" d="M71 321v188h919v-188h-919zM71 668v187h919v-187h-919z" />
<glyph unicode="&#x3e;" horiz-adv-x="926" d="M71 104v213l543 268l-8 4l1 -1q-15 8 -31 17t-31 18q-40 22 -81.5 44.5t-80.5 45.5l1 -1q-11 5 -21.5 11.5t-21.5 11.5q-64 37 -135.5 78t-134.5 76v211l852 -480v-81z" />
<glyph unicode="?" horiz-adv-x="833" d="M23 1182q70 112 174 169t241 60q78 0 144.5 -22.5t115.5 -65.5t77 -106t28 -143q0 -60 -15.5 -108.5t-41 -89t-57.5 -75t-65 -66.5q-42 -40 -69 -67t-42 -47.5t-20.5 -39t-5.5 -40.5q0 -17 3.5 -39t9.5 -46.5t13.5 -50.5t15.5 -50h-188q-8 19 -15.5 43t-12.5 48.5 t-8 48.5t-3 45q0 48 13.5 89t36.5 77t54 68.5t66 64.5q24 22 48 47t43 53t31 59.5t12 67.5q0 72 -47 112.5t-122 40.5q-72 0 -139 -33.5t-115 -95.5zM284 112q0 28 9.5 51.5t27 40.5t40.5 26t50 9t51 -9t41 -26t27 -40.5t10 -51.5q0 -27 -10 -50.5t-27 -41t-41 -27t-51 -9.5 t-50 9.5t-40.5 27t-27 41t-9.5 50.5z" />
<glyph unicode="@" horiz-adv-x="1633" d="M50 604q0 342 227 575q226 232 564 232q168 0 302.5 -50t237.5 -150q205 -200 205 -506q0 -110 -29 -208.5t-78 -170.5q-54 -73 -128.5 -115.5t-155.5 -42.5t-140.5 30t-91.5 89q-47 -58 -108.5 -88.5t-136.5 -30.5q-76 0 -136 26.5t-105 82.5h1q-42 52 -64 120.5 t-22 153.5q0 222 114 372q119 158 312 158q41 0 78.5 -12t71.5 -33q2 7 3.5 15t3.5 16h186l-51 -582q2 -61 22 -96t58 -35q83 0 136 86q32 47 47.5 112t15.5 144q0 120 -37.5 217.5t-106.5 169.5q-72 67 -177 104t-236 37q-60 0 -118.5 -13t-112.5 -36.5t-102.5 -56 t-87.5 -70.5q-38 -44 -68 -95.5t-51.5 -108t-33 -117t-11.5 -123.5q0 -270 154 -428q155 -158 424 -158q106 0 203.5 23.5t191.5 69.5l114 -144q-149 -67 -277.5 -101t-240.5 -34q-344 0 -556 215q-210 219 -210 557zM589 559q0 -96 36.5 -150.5t102.5 -54.5q42 0 78.5 25.5 t64.5 70.5q31 57 48 130.5t17 156.5q0 78 -32.5 117.5t-89.5 39.5q-101 0 -159 -85q-66 -92 -66 -250z" />
<glyph unicode="A" d="M27 0l541 1434h165l535 -1434h-221l-151 411h-495q-18 -48 -38 -100.5t-40 -106.5t-39.5 -106t-35.5 -98h-221zM474 608h349l-176 477q-3 -8 -7 -17.5t-7 -17.5q-27 -77 -54 -150q-5 -12 -9.5 -25t-9.5 -25q-17 -48 -33.5 -94.5t-33.5 -92.5l-6 -16q-2 -6 -4 -10l-3 -11z M611 1184l76 -1q0 -1 -3 -6.5t-6 -12t-6 -12t-3 -6.5l-2 -3l-16 -50l-26 52v1q-2 5 -5.5 14.5t-8.5 23.5z" />
<glyph unicode="B" horiz-adv-x="983" d="M71 0v1434h402q176 0 286 -99q112 -102 112 -263q0 -94 -34.5 -171.5t-102.5 -131.5q31 -14 56 -33.5t48 -43.5q48 -51 72.5 -115t24.5 -143q0 -189 -125 -312q-125 -122 -329 -122h-410zM274 197h189q130 0 196.5 59t66.5 170q0 217 -314 217h-138v-446zM274 841h127 q63 0 111 14t83 45q67 56 67 156q0 181 -224 181h-164v-396z" />
<glyph unicode="C" horiz-adv-x="1249" d="M47 690q0 344 202 555q102 106 228 158.5t283 52.5q116 -2 225.5 -48t216.5 -137l-159 -142q-71 66 -142.5 98.5t-142.5 32.5q-52 0 -102.5 -11.5t-97 -32t-88.5 -48.5t-77 -61l1 2q-66 -76 -102.5 -179.5t-36.5 -230.5q0 -115 36 -215.5t95 -171.5q66 -63 153 -100.5 t184 -37.5q72 0 143.5 32.5t141.5 98.5l159 -142q-213 -182 -452 -186q-296 0 -483 199q-185 200 -185 514z" />
<glyph unicode="D" horiz-adv-x="1233" d="M71 0v1434h388q357 0 542 -178t185 -521q0 -325 -200 -531q-200 -204 -546 -204h-369zM276 197h151q63 0 122 10t112 28t98 43t80 55q63 67 101 169.5t38 230.5q0 504 -534 504h-168v-1040z" />
<glyph unicode="E" horiz-adv-x="881" d="M71 0v1434h731v-197h-526v-416h489v-196h-489v-428h557v-197h-762z" />
<glyph unicode="F" horiz-adv-x="812" d="M72 0v1434h730v-197h-525v-426h488v-196h-488v-615h-205z" />
<glyph unicode="G" horiz-adv-x="1254" d="M47 698q0 162 48.5 296t145.5 243q196 219 522 219q221 -4 431 -184l-159 -143q-140 131 -285 131q-113 0 -202.5 -38.5t-158.5 -113.5q-134 -152 -134 -397q0 -121 35 -223.5t92 -175.5q31 -30 69.5 -55t82 -43.5t91.5 -29t98 -10.5q74 0 136.5 12.5t119.5 41.5v346 h-310v197h515v-656q-249 -138 -477 -138q-145 0 -266.5 52.5t-212.5 150.5q-88 99 -134.5 229t-46.5 289z" />
<glyph unicode="H" horiz-adv-x="1198" d="M72 0v1434h206v-603h641v603h206v-1434h-206v633h-641v-633h-206z" />
<glyph unicode="I" horiz-adv-x="352" d="M72 0v1434h205v-1434h-205z" />
<glyph unicode="J" horiz-adv-x="650" d="M7 -179l81 193q35 -14 62.5 -22t46.5 -8q97 0 139.5 82t42.5 258v1110h205v-1112q0 -536 -389 -536q-30 0 -76 8.5t-112 26.5z" />
<glyph unicode="K" horiz-adv-x="1111" d="M72 0v1434h205v-529q11 13 23.5 26.5t23.5 26.5q52 57 107.5 118.5t111.5 123t110 121.5t102 113h271l-630 -697q66 -72 133.5 -147t136.5 -150q25 -28 51 -57l52 -58q26 -29 52 -57.5t52 -56.5q16 -19 42.5 -47.5t54.5 -59.5t54 -59t43 -45h-284l-506 568v-568h-205z " />
<glyph unicode="L" horiz-adv-x="813" d="M73 0v1434h205v-1237h529v-197h-734z" />
<glyph unicode="M" horiz-adv-x="1492" d="M73 0v1434h175l501 -1081l496 1081h174v-1434h-201v917q-71 -155 -142.5 -311t-142.5 -311q-33 -72 -67.5 -149t-66.5 -146h-100l-421 920v-920h-205z" />
<glyph unicode="N" horiz-adv-x="1257" d="M73 0v1434h156l751 -1018v1018h204v-1434h-148l-758 1024v-1024h-205z" />
<glyph unicode="O" horiz-adv-x="1453" d="M52 702q0 167 48.5 304t136.5 240q94 101 223.5 155.5t286.5 54.5q146 0 265 -50t207 -153v1q182 -200 182 -517q0 -348 -185 -554q-188 -206 -495 -206q-305 0 -488 204q-91 104 -136 232.5t-45 288.5zM259 713q0 -123 32.5 -222.5t95.5 -173.5q63 -67 146.5 -105 t185.5 -38q109 0 195 37t149 105v-1q63 73 96 176t33 232q0 128 -30 227.5t-94 170.5q-63 69 -146 104t-192 35q-101 0 -186 -39.5t-151 -108.5q-66 -74 -100 -174t-34 -225z" />
<glyph unicode="P" horiz-adv-x="938" d="M73 0v1434h375q232 0 353.5 -108t121.5 -319q0 -208 -137 -343q-70 -67 -163 -101.5t-214 -34.5h-133v-528h-203zM276 727h131q152 0 230 70.5t78 198.5q0 241 -283 241h-156v-510z" />
<glyph unicode="Q" horiz-adv-x="1435" d="M40 702q0 167 48.5 304t135.5 240q94 101 223.5 155.5t286.5 54.5q146 0 264 -50t209 -153v1q182 -197 182 -517q0 -171 -46.5 -309.5t-132.5 -238.5q-79 -85 -182 -138t-221 -69q5 -42 24 -59.5t54 -17.5q36 0 118 50l65 -182q-127 -59 -194 -59q-242 0 -265 269 q-239 29 -395 206q-85 98 -129.5 226.5t-44.5 286.5zM247 713q0 -121 33 -222.5t94 -173.5q63 -69 146 -106t187 -37q51 0 99.5 10.5t92.5 29t82.5 44t69.5 55.5q58 74 93.5 179.5t35.5 230.5q0 128 -30.5 227.5t-94.5 170.5q-63 69 -145.5 104t-191.5 35 q-101 0 -186.5 -39.5t-151.5 -108.5q-65 -75 -99 -174.5t-34 -224.5z" />
<glyph unicode="R" horiz-adv-x="1051" d="M73 0v1434h423q199 0 316 -110q58 -56 86.5 -127.5t28.5 -163.5q0 -82 -23.5 -151t-71.5 -124q-39 -44 -84 -73.5t-104 -49.5q4 -6 7.5 -12.5t7.5 -12.5q4 -7 8 -13.5t8 -14.5q17 -30 33.5 -60t34.5 -61q6 -11 13.5 -23.5t14.5 -25.5l-1 1q30 -53 62 -108t64 -111 q13 -23 26.5 -47.5t27.5 -47.5q5 -9 13 -23t16 -28.5t15 -27.5t12 -20h-232l-333 589h-163v-589h-205zM278 784h171q61 0 113 17t89 47q30 31 49.5 77t19.5 100q0 100 -64.5 156t-188.5 56h-189v-453z" />
<glyph unicode="S" horiz-adv-x="964" d="M45 131l128 160q72 -59 135.5 -87.5t118.5 -28.5h5q123 1 188 49q66 50 66 137q0 38 -10.5 69t-28.5 54q-27 27 -83 66.5t-137 86.5q-212 127 -272 212q-65 97 -65 215q0 165 129 279q63 55 145 84t182 29q94 -3 187 -42.5t183 -110.5l-128 -159q-72 59 -136 87.5 t-118 28.5q-111 0 -175 -55q-28 -26 -44 -58t-16 -72q0 -38 10.5 -69.5t27.5 -53.5l-1 2q13 -13 36.5 -31t52.5 -38t63 -41.5t69 -42.5q42 -25 82 -52t74.5 -53.5t62 -51.5t44.5 -46q73 -91 73 -221q0 -87 -32.5 -160t-92.5 -128q-61 -55 -149 -83q-85 -27 -197 -27h-8h-2 q-93 3 -185.5 42t-181.5 110z" />
<glyph unicode="T" horiz-adv-x="1020" d="M27 1237v197h966v-197h-379v-1237h-205v1237h-382z" />
<glyph unicode="U" horiz-adv-x="1164" d="M67 564v870h205v-857q0 -403 316 -403q305 0 305 390v870h204v-849q0 -608 -526 -608q-504 0 -504 587z" />
<glyph unicode="V" horiz-adv-x="1284" d="M29 1434h223l380 -1058q26 69 53.5 140t55.5 143q36 93 74 192t76 198.5t75 197t71 187.5h220l-556 -1434h-145z" />
<glyph unicode="W" horiz-adv-x="1842" d="M46 1434h224l290 -1022q9 27 16.5 54t16.5 55q11 32 20 64.5t20 65.5q11 36 22.5 73t23.5 74q20 62 43.5 141.5t46.5 153.5q8 25 15 49t13 44q15 47 31 100t31 100q3 9 7.5 24.5t6.5 23.5h135l287 -1018q15 57 30.5 114t31.5 113q7 24 13 49.5t14 50.5q7 24 14 50.5 t14 50.5v-1q20 71 40.5 146.5t41.5 151t41.5 150t39.5 143.5h221l-421 -1434h-164l-278 950q-23 -68 -44.5 -137t-42.5 -138q-5 -11 -6.5 -17.5t-3.5 -11.5l-4 -14q-1 -6 -2 -13q-31 -98 -63 -199t-63 -199q-8 -26 -18 -57t-18 -57q-5 -14 -9 -29t-9 -30q-3 -9 -8 -24.5 t-7 -23.5h-162z" />
<glyph unicode="X" horiz-adv-x="1258" d="M57 0l451 723q-32 51 -62.5 102.5t-64.5 107.5q-17 29 -34 56.5t-34 56.5q-8 15 -23.5 41.5t-33 55t-33 54.5t-23.5 40v-1q-8 11 -17 25.5t-17 28.5q-4 8 -8.5 15t-9.5 15q-5 10 -11.5 21t-12.5 22v-1q-4 6 -10 16.5t-12 21.5t-11.5 20.5t-7.5 13.5h242l311 -525v-2l2 2 v-1q38 63 75.5 127t76.5 130t80 135.5t79 133.5h240l-430 -708q10 -16 19 -32t19 -31q68 -113 142.5 -236.5t145.5 -238.5q11 -19 26 -44t31.5 -51.5t31.5 -51t26 -41.5h-246l-320 530l1 -2q-2 2 -3 4t-3 4l-2 -2q-17 -27 -35 -56t-35 -58q-12 -19 -24 -39t-23 -39 q-11 -16 -20.5 -33t-20.5 -35l-38 -61q-10 -15 -19 -30.5t-18 -29.5t-17.5 -29t-18.5 -31v1q-13 -22 -29.5 -48t-28.5 -46h-243z" />
<glyph unicode="Y" horiz-adv-x="1158" d="M27 1434h228l317 -656q42 81 84 165t87 169v-1q5 11 10.5 22.5t11.5 23.5q9 17 17 34.5t18 36.5q11 21 22.5 44t23.5 45q14 29 30.5 61.5t28.5 55.5h228l-464 -891v-543h-204v543q-14 30 -29.5 60.5t-29.5 59.5q-4 8 -11 21.5t-10 21.5v-1q-12 24 -25 49t-25 51 q-17 35 -37.5 76.5t-36.5 74.5q-7 14 -17.5 35.5t-17.5 35.5q-22 45 -49 100t-54.5 111t-52.5 107t-43 89z" />
<glyph unicode="Z" horiz-adv-x="1168" d="M56 0v102l749 1135h-686v197h989v-99l-753 -1138h741v-197h-1040z" />
<glyph unicode="[" horiz-adv-x="514" d="M75 -291v1681h394v-187h-200v-1307h200v-187h-394z" />
<glyph unicode="\" horiz-adv-x="887" d="M8 1390h207l664 -1603h-201z" />
<glyph unicode="]" horiz-adv-x="514" d="M44 -104h200v1307h-200v187h394v-1681h-394v187z" />
<glyph unicode="^" horiz-adv-x="966" d="M29 626l403 785h103l402 -785h-212l-241 479q-2 -5 -5 -10.5t-5 -9.5q-7 -14 -14.5 -29.5t-13.5 -28.5l-18 -33v1q-4 -8 -8 -16.5t-9 -16.5l1 1l-59 -117l-40 -78q-17 -33 -37 -72.5t-34 -69.5h-213z" />
<glyph unicode="_" horiz-adv-x="1020" d="M75 -47h869v-192h-869v192z" />
<glyph unicode="`" horiz-adv-x="560" d="M18 1463h232l289 -404h-217z" />
<glyph unicode="a" horiz-adv-x="909" d="M51 296q8 85 44 153t90.5 113.5t124.5 65.5q50 15 102 15q21 0 42 -2q48 -5 83.5 -22t59 -36t35.5 -35t14 -20v119q-5 45 -17.5 84t-33.5 67.5t-49.5 45t-64.5 16.5q-70 -1 -140.5 -32.5t-142.5 -97.5l-127 131q91 95 194 141q101 45 220 45h5q169 0 259.5 -102 t90.5 -296v-649h-193v127q-53 -75 -121 -112.5t-139 -37.5q-74 0 -135.5 24t-108.5 66q-92 90 -92 229zM248 294q0 -61 37 -94q36 -36 111 -36q52 0 98.5 15t79.5 39q23 20 42.5 41t28.5 38v106q-48 31 -94 44t-91 13t-83.5 -12t-67.5 -34t-45 -52.5t-16 -67.5zM645 291v6 q1 2 2 4.5t2 4.5l36 -6l-1 -9h-39z" />
<glyph unicode="b" horiz-adv-x="1002" d="M74 1463h194v-532q63 55 133.5 82t152.5 34q99 0 179.5 -38.5t137.5 -104.5q52 -66 81 -158t29 -201q0 -253 -123 -406q-129 -162 -340 -162q-146 0 -250 87v-66l-193 9zM268 311q24 -31 49.5 -58t56.5 -46.5t68 -31t83 -11.5q53 0 101 28.5t83 70.5l-2 -2 q34 51 56 124.5t22 157.5q0 74 -18 135t-52 103h1q-29 35 -72 55.5t-92 23.5q-77 -11 -153 -50.5t-131 -107.5v-391z" />
<glyph unicode="c" horiz-adv-x="944" d="M49 496q0 118 38.5 218.5t105.5 175.5q72 75 165.5 116t204.5 41h5q152 0 323 -114l-112 -152q-131 79 -228 79q-69 0 -122 -24.5t-96 -73.5q-45 -51 -66 -116t-21 -146q0 -157 78 -248q38 -44 87 -66t113 -22q57 0 119.5 23.5t130.5 72.5l112 -161q-106 -60 -197 -91 t-169 -31q-108 0 -193.5 37t-151.5 109q-62 72 -94 165t-32 208z" />
<glyph unicode="d" horiz-adv-x="1004" d="M21 545q0 111 28.5 202t79.5 157q57 68 138.5 105.5t178.5 37.5q54 0 97 -8t78.5 -21.5t63 -32.5t50.5 -41v519h194l-1 -1456l-193 -9v66q-102 -87 -251 -87q-103 0 -188.5 42t-149.5 120q-58 76 -91.5 180.5t-33.5 225.5zM219 543q0 -83 21 -156.5t56 -125.5l-2 2 q35 -42 82.5 -70.5t101.5 -28.5q46 0 83 11.5t67.5 31t56.5 46.5t50 58v391q-55 69 -130.5 108t-153.5 50q-48 -3 -91 -23.5t-72 -55.5q-33 -42 -51 -103t-18 -135z" />
<glyph unicode="e" horiz-adv-x="976" d="M52 518q0 109 32.5 202.5t93.5 168.5q66 74 152.5 116t186.5 42q97 0 174 -38t131 -105q47 -66 74.5 -158.5t27.5 -200.5v-92h-672q6 -63 23 -116t47 -87q69 -86 197 -86q133 0 288 125l99 -160q-106 -76 -205.5 -114t-199.5 -38q-98 0 -181 38.5t-145 108.5 q-60 71 -91.5 168.5t-31.5 225.5zM264 639h458q-13 107 -67 164t-142 57q-52 0 -96 -18t-78 -52q-25 -26 -44 -64.5t-31 -86.5z" />
<glyph unicode="f" horiz-adv-x="726" d="M26 838v186h165v103q0 81 22.5 146.5t64.5 111.5q45 45 101 68.5t122 23.5q69 0 204 -65l-86 -177q-35 26 -66 41t-56 15q-113 0 -113 -172v-95h242v-186h-242v-838h-193v838h-165z" />
<glyph unicode="g" horiz-adv-x="1029" d="M53 496q0 117 33.5 217t94.5 175q65 76 153.5 117.5t192.5 41.5q69 0 130 -21t110 -57v55h194v-901q0 -137 -32.5 -242.5t-95.5 -173.5q-64 -63 -163.5 -99t-224.5 -36q-73 0 -162.5 25.5t-200.5 81.5l133 157q118 -79 231 -79q303 0 319 307q-56 -48 -122.5 -67.5 t-150.5 -19.5q-195 0 -319 142q-59 69 -89.5 162.5t-30.5 214.5zM250 502q0 -81 19 -145t54 -110q33 -40 78 -61.5t101 -21.5q170 1 265 154v402q-109 140 -238 140q-123 0 -198 -93q-81 -98 -81 -265z" />
<glyph unicode="h" horiz-adv-x="919" d="M75 0v1463h194v-503q54 45 118 66t144 21q174 0 266.5 -110t92.5 -315v-622h-194v602q0 135 -45 196.5t-142 61.5h-1q-132 0 -239 -179v-681h-194z" />
<glyph unicode="i" horiz-adv-x="353" d="M52 1267q0 27 10.5 50t27.5 39t39.5 25t45.5 9q25 0 47.5 -9t40 -25t27.5 -38.5t10 -50.5q0 -26 -9.5 -49t-26.5 -40t-40 -26.5t-49 -9.5q-24 0 -46.5 9.5t-39.5 26t-27 39.5t-10 50zM80 0v1024h193v-1024h-193z" />
<glyph unicode="j" horiz-adv-x="656" d="M9 -159q71 -41 120 -62.5t75 -21.5q175 0 175 309v958h194v-942q0 -510 -378 -510q-75 0 -186 52v217zM351 1267q0 27 10.5 50t28 39t40 25t45.5 9q25 0 48 -9t40 -25t27.5 -38.5t10.5 -50.5q0 -26 -9.5 -49t-26.5 -40t-40 -26.5t-50 -9.5q-24 0 -46.5 9.5t-39.5 26 t-27.5 39.5t-10.5 50z" />
<glyph unicode="k" horiz-adv-x="913" d="M75 0v1463h194v-794q1 1 1 1.5t1 1.5q8 9 17.5 19t18.5 18q4 5 8 9.5t9 9.5q32 34 66.5 69.5t68.5 70.5q17 18 35 36.5t36 37.5q19 20 40.5 41.5t39.5 40.5h260l-488 -498q54 -55 115.5 -116t123.5 -124l73 -72l76 -77l74 -73q35 -36 62 -64h-275l-362 372v-372h-194z " />
<glyph unicode="l" horiz-adv-x="524" d="M72 281v1182h193v-1172q0 -65 17 -94.5t58 -29.5q36 0 166 74v-208q-55 -27 -98.5 -39t-77.5 -12q-258 0 -258 299z" />
<glyph unicode="m" horiz-adv-x="1485" d="M75 0v1024h194v-60q102 83 224 83h3q58 0 110.5 -19t95.5 -52q19 -17 36 -35.5t30 -37.5q19 23 39 42t45 36q49 32 100.5 49t105.5 17q356 0 356 -427v-620h-194v604q0 152 -44 208q-35 48 -124 48q-80 0 -144 -75q-67 -77 -67 -195v-590h-193v611q0 121 -43 183t-126 66 q-30 -6 -60 -17.5t-57.5 -30t-51.5 -43t-41 -55.5v-714h-194z" />
<glyph unicode="n" horiz-adv-x="958" d="M75 0v1024h194v-62q55 46 119 66q62 20 134 19h7q87 0 154.5 -29t113 -84.5t69.5 -136.5t24 -186v-611h-194v586q0 131 -47.5 198.5t-130.5 75.5q-78 -11 -144.5 -46.5t-104.5 -97.5v-716h-194z" />
<glyph unicode="o" horiz-adv-x="1083" d="M54 506q0 123 35.5 222t101.5 172q68 69 160.5 108t200.5 39q219 0 349 -147q64 -73 96 -169t32 -221q0 -116 -33.5 -211.5t-96.5 -169.5q-63 -73 -154 -112.5t-203 -39.5t-202.5 38t-156.5 113q-63 73 -96 167t-33 211zM252 504q0 -157 80 -250q78 -90 213 -90 q68 0 121 23.5t90 63.5q36 45 56 111.5t20 149.5q0 170 -73 259t-210 89q-138 0 -217 -90q-80 -92 -80 -266z" />
<glyph unicode="p" horiz-adv-x="1003" d="M75 -419v1443h194v-76q28 25 58.5 43t66 29.5t76 18t87.5 8.5q97 0 177.5 -38.5t137.5 -104.5q52 -66 81 -158t29 -201q0 -122 -32.5 -225t-90.5 -180q-65 -77 -151 -120t-189 -43h-13q-71 0 -126 19q-60 22 -111 67v-482h-194zM269 322q50 -78 114.5 -117.5t142.5 -40.5 q53 0 101 28.5t83 70.5l-2 -2q34 51 56 124.5t22 157.5q0 74 -18 135t-52 103h1q-29 35 -72 56t-91 23q-40 -6 -82 -17.5t-80 -31t-70.5 -46.5t-52.5 -64v-379z" />
<glyph unicode="q" horiz-adv-x="1004" d="M21 545q0 111 28.5 202t79.5 157q57 68 138.5 105.5t178.5 37.5q94 -5 163.5 -27t125.5 -73v77h194v-1443h-194v484q-51 -43 -113 -67q-57 -21 -127 -21h-12q-211 2 -339 163q-123 156 -123 405zM219 543q0 -83 21 -156.5t56 -125.5l-2 2q35 -42 82.5 -70.5t101.5 -28.5 q77 1 141.5 40.5t115.5 117.5v378q-21 39 -52.5 67t-69.5 47t-80 30t-82 16q-47 -2 -91 -23.5t-74 -55.5h1q-33 -44 -50.5 -103.5t-17.5 -134.5z" />
<glyph unicode="r" horiz-adv-x="631" d="M75 0v1024h191v-55q48 39 98 57q46 17 97 16h11q31 0 66.5 -8t78.5 -28v-233q-38 34 -74.5 49t-70.5 15t-64.5 -11.5t-56.5 -29.5t-47.5 -39t-37.5 -40v-717h-191z" />
<glyph unicode="s" horiz-adv-x="807" d="M44 106l92 179q45 -40 83 -66.5t64 -34.5t52.5 -14t43.5 -6q159 0 159 121q0 39 -39.5 70t-127.5 69q-74 33 -124.5 66t-80.5 66q-32 38 -49 84.5t-17 100.5q0 139 105 224q103 82 246 82q67 0 142.5 -26.5t161.5 -77.5l-77 -176q-72 48 -131 70.5t-104 22.5 q-67 0 -109 -34q-17 -15 -27 -35.5t-10 -43.5q0 -20 6.5 -38.5t17.5 -32.5q17 -16 51.5 -36t80.5 -40q76 -35 129.5 -68t82.5 -64q70 -70 70 -183q0 -68 -26 -124t-75 -99q-47 -38 -114 -61.5t-148 -23.5q-77 0 -157 32.5t-171 96.5z" />
<glyph unicode="t" horiz-adv-x="668" d="M24 838v186h164v266h194v-266h240v-186h-240v-547q0 -65 16.5 -94.5t58.5 -29.5q32 0 115 51l63 -179q-63 -29 -109.5 -43t-80.5 -14q-257 0 -257 299v557h-164z" />
<glyph unicode="u" horiz-adv-x="956" d="M67 440v584h193v-563q0 -155 48 -226t149 -71h3q66 0 122 38q56 40 105 118v704h194v-1024h-194v69q-56 -47 -117 -71q-54 -21 -111 -21h-15h1q-378 0 -378 463z" />
<glyph unicode="v" horiz-adv-x="1013" d="M30 1024h209l265 -702q29 78 58.5 155t59.5 156q33 86 67 174t67 174q3 8 8 21.5t8 21.5h212l-408 -1024h-153z" />
<glyph unicode="w" horiz-adv-x="1418" d="M47 1024h211l190 -653q17 52 34 108t32 106q21 67 43.5 137t44.5 139q12 38 25.5 82.5t25.5 80.5h141l183 -638l14 46l14 46q14 49 29 98.5t29 99.5q11 36 22 73l22 74q14 47 30 100.5t29 100.5h205l-316 -1024h-164l-177 608q-22 -66 -43.5 -133.5t-42.5 -133.5 q-13 -41 -27 -84t-28 -87t-28 -87t-26 -83h-163z" />
<glyph unicode="x" horiz-adv-x="1039" d="M60 0l342 500q-2 3 -3.5 6t-3.5 6l1 -1q-5 6 -8.5 11t-6.5 12q-44 71 -95 151.5t-97 152.5q-13 20 -27 41l-28 42q-6 10 -13 22t-15 23q-3 4 -8.5 12.5t-12 18t-12 17t-6.5 10.5h230l220 -353q0 -2 2 -4l230 357h231l-349 -524q7 -9 13 -17q7 -9 13 -19q8 -11 15 -22.5 t14 -21.5q11 -17 21.5 -33t21.5 -32l43 -63q29 -44 61 -91.5t62 -92.5l-1 1q6 -8 14 -20l18 -27q10 -15 20 -31t19 -31h-237l-211 333l6 15l-9 -10l-2 3q-5 -5 -8.5 -9.5t-7.5 -8.5q1 -4 5 -6q-8 -13 -16 -24q-17 -28 -37.5 -58.5t-38.5 -57.5q-13 -19 -26 -39.5t-26 -40.5 q-9 -14 -18 -28.5t-17 -28.5q-6 -8 -14.5 -20.5t-11.5 -19.5h-236zM501 317q1 -1 2 -1q6 0 14 17l-3 5l-4 -5q-2 -4 -4.5 -8t-4.5 -8z" />
<glyph unicode="y" horiz-adv-x="1035" d="M62 1024h208l263 -706q38 98 75.5 194.5t76.5 196.5q14 36 30 76.5t32.5 81.5t32 81t29.5 76h211l-476 -1177q-29 -70 -60.5 -121.5t-69 -85.5t-84 -51t-104.5 -17q-27 0 -62.5 9t-79.5 24l57 189q31 -23 54 -26t35 -3q36 0 67 30.5t55 87.5h-1q8 20 17.5 40t17.5 41 q11 27 21 50t20 48q-4 12 -10 26.5t-11 26.5q-9 24 -18 49.5t-19 50.5q-28 72 -56.5 147.5t-55.5 147.5q-22 57 -47.5 124.5t-51.5 136t-51 134t-45 119.5z" />
<glyph unicode="z" horiz-adv-x="995" d="M68 0v106l549 732h-506v186h814v-97l-557 -741h534v-186h-834z" />
<glyph unicode="{" horiz-adv-x="558" d="M18 470v158q140 21 140 166v280q0 82 21.5 141t64.5 97t106.5 57t147.5 23v-186q-51 -3 -81 -11t-41 -18q-10 -17 -16 -49.5t-6 -79.5v-262q0 -79 -21 -140.5t-59 -100.5q40 -40 60 -101t20 -149v-245q0 -45 6 -77t16 -49q11 -11 41.5 -19.5t80.5 -10.5v-187 q-84 4 -147.5 23t-106.5 57t-64.5 96.5t-21.5 141.5v265q0 80 -34.5 125.5t-105.5 54.5z" />
<glyph unicode="|" horiz-adv-x="349" d="M75 -428v1936h196v-1936h-196z" />
<glyph unicode="}" horiz-adv-x="555" d="M59 -107q51 2 80.5 9.5t37.5 18.5q13 15 18.5 48t5.5 81v245q0 173 81 251q-81 78 -81 240v262q0 47 -6.5 80t-17.5 49q-13 10 -43 18t-75 10v187q84 -4 147.5 -23t106 -56.5t64.5 -96.5t22 -142v-280q0 -146 137 -167v-157q-137 -18 -137 -180v-265q0 -83 -22 -141.5 t-64.5 -96.5t-106 -57t-147.5 -23v186z" />
<glyph unicode="~" horiz-adv-x="985" d="M60 426q4 76 24 137t54.5 103.5t82 65t105.5 22.5q50 0 103 -22.5t104 -59.5q27 -22 49 -37t35 -24q0 -1 1 -1q9 -3 20.5 -5t25.5 -2q67 0 85 143h177q-5 -78 -25 -139t-54.5 -103t-81.5 -64t-105 -22q-50 0 -104.5 24t-108.5 62q-83 63 -123 63q-73 0 -85 -141h-179z " />
<glyph unicode="&#xa1;" horiz-adv-x="364" d="M53 912q0 27 10 50.5t27.5 41t41 27t50.5 9.5t50 -9.5t40.5 -27t27 -41t9.5 -50.5q0 -29 -9.5 -52t-27 -40t-40.5 -26t-50 -9t-50.5 9t-41 26t-27.5 40t-10 52zM81 -364l9 1030h188l8 -1030h-205z" />
<glyph unicode="&#xa2;" horiz-adv-x="869" d="M30 641q0 105 29.5 195.5t83.5 162.5q50 66 116.5 111.5t147.5 65.5v188h194v-174q48 -8 106.5 -28.5t128.5 -50.5l-58 -197q-57 35 -99.5 56t-77.5 29v-679q38 11 80.5 37t91.5 64l59 -196q-66 -38 -122 -61t-109 -32v-183h-194v183q-161 30 -261 154q-116 142 -116 355 zM227 647q0 -67 18.5 -128.5t47.5 -107.5l-2 2q24 -26 53 -49t63 -37v652q-34 -16 -63 -40.5t-52 -53.5l1 1q-30 -46 -48 -108t-18 -131z" />
<glyph unicode="&#xa3;" horiz-adv-x="975" d="M36 0v168q222 94 222 289v133h-203v191h203v203q0 91 28 170.5t73 135.5q53 59 123 90t155 31q48 0 103 -12.5t114 -35.5v-214q-75 38 -129.5 56.5t-91.5 18.5q-86 0 -133.5 -63.5t-47.5 -186.5v-193h273v-191h-273v-103q0 -102 -16.5 -174t-65.5 -127h551v-186h-885z " />
<glyph unicode="&#xa4;" horiz-adv-x="1059" d="M61 1032l134 134l128 -127q100 59 207 59q116 0 210 -56l25 25l63 63l38 36l131 -132l-126 -124q57 -90 57 -208q0 -58 -13 -107.5t-42 -97.5q5 -5 9 -10.5t9 -10.5q10 -9 21 -20l22 -22v1q6 -6 16 -15l19 -18q9 -9 17 -17.5t12 -12.5l-132 -133l-124 126 q-94 -60 -212 -60q-59 0 -111.5 15t-97.5 44l-52 -52q-8 -8 -18 -17.5t-20 -19.5l-19 -19l-17 -17l-132 132l129 125q-28 49 -43.5 102t-15.5 104q0 57 14.5 110t41.5 98l-40 41q-8 7 -16 16l-17 16l-16 16q-5 5 -16.5 14.5t-22.5 18.5zM319 704q0 -45 16 -81.5t48 -68.5 q63 -63 147 -63q86 0 148 62q63 64 63 151q0 89 -64 150q-61 58 -145 58q-45 0 -83.5 -14.5t-68.5 -45.5q-61 -64 -61 -148z" />
<glyph unicode="&#xa5;" horiz-adv-x="1074" d="M35 1390h221l281 -525q9 15 17.5 31t17.5 33q10 18 20 37t20 36l-1 -1q7 12 14 25.5t14 25.5q9 15 16.5 30.5t15.5 30.5q19 35 40 72.5t41 74.5q17 30 35.5 65.5t34.5 64.5h217l-343 -615h269v-185h-332v-108h332v-186h-332v-296h-194v296h-331v186h331v108h-331v185h265 q-54 96 -105.5 190.5t-104.5 193.5l1 -1q-11 19 -23.5 41t-23.5 43h1q-11 18 -20.5 35.5t-18.5 33.5q-2 4 -8.5 15t-13.5 24t-13 24t-9 16z" />
<glyph unicode="&#xa6;" horiz-adv-x="335" d="M75 -428v871h196v-871h-196zM75 637v871h196v-871h-196z" />
<glyph unicode="&#xa7;" horiz-adv-x="760" d="M59 713q0 74 26 132t81 103q-34 40 -54 87.5t-20 100.5q0 135 92 221q43 41 102.5 62t137.5 21q55 0 111 -12.5t119 -40.5v-220q-75 45 -133 66t-99 21q-133 0 -133 -113q0 -23 8 -41t23 -35q24 -21 67.5 -46t108.5 -54q214 -96 214 -298q0 -71 -29 -135.5t-83 -118.5 q33 -36 46.5 -78t13.5 -97q0 -126 -98 -215q-48 -40 -108.5 -61.5t-136.5 -21.5q-52 0 -114.5 16.5t-133.5 49.5v218q91 -48 152 -72t98 -24q70 0 106.5 29t36.5 79q0 27 -21 59q-9 16 -36.5 34t-63.5 37q-80 39 -140 80.5t-86 79.5q-54 83 -54 187zM200 920h165l-2 -64 q-22 -14 -35 -14q-8 0 -36 17t-92 61zM256 718q0 -63 35 -100q20 -20 57.5 -43.5t94.5 -49.5q35 30 51 56q9 16 14.5 38t5.5 48q0 45 -30 78q-16 17 -55 41t-99 52q-41 -21 -57.5 -50t-16.5 -70z" />
<glyph unicode="&#xa8;" horiz-adv-x="667" d="M64 1178q0 26 10 47.5t26.5 37t38 24t43.5 8.5q24 0 46 -8.5t39 -24t27.5 -37t10.5 -47.5q0 -25 -9 -47t-25.5 -38t-38.5 -25t-48 -9q-23 0 -44.5 8.5t-38.5 24t-27 37.5t-10 49zM361 1178q0 26 10 47.5t26.5 37t38 24t43.5 8.5q23 0 45.5 -8.5t40 -24t28 -37t10.5 -47.5 q0 -25 -10 -47t-26.5 -38t-38.5 -25t-47 -9q-23 0 -44.5 8.5t-38 24t-27 37.5t-10.5 49z" />
<glyph unicode="&#xa9;" horiz-adv-x="1542" d="M51 692q0 150 52 277t159 231q214 211 509 211q294 0 509 -211q211 -207 211 -506q0 -296 -210 -506q-212 -211 -508 -211q-300 0 -511 210t-211 505zM233 692q0 -52 11.5 -103t32.5 -100t50 -93.5t64 -82.5l-1 2q78 -72 176.5 -114.5t204.5 -42.5q112 0 207.5 38.5 t173.5 118.5q158 160 158 377q0 222 -159 381q-158 159 -380 159q-223 0 -380 -159q-158 -158 -158 -381zM300 671q0 241 146 386q73 73 165 109t201 36q64 0 140.5 -21t168.5 -67l-81 -169q-133 73 -242 73q-130 0 -217 -88q-88 -87 -88 -241q0 -149 92 -237 q45 -45 101 -66.5t121 -21.5q98 0 235 84l86 -164q-100 -53 -182.5 -80t-147.5 -27q-207 0 -354 143q-144 142 -144 351z" />
<glyph unicode="&#xaa;" horiz-adv-x="746" d="M56 860q0 52 16.5 108.5t52.5 104t93 78.5t137 31q26 0 54.5 -3.5t60.5 -13.5q-25 59 -78 59q-100 0 -281 -136v228q78 47 150 69t138 22q277 0 277 -299v-469h-192v39q-40 -26 -83.5 -40t-90.5 -14q-60 0 -105 17.5t-80 51.5q-69 68 -69 167zM249 860q0 -25 19.5 -39.5 t57.5 -14.5q13 0 31 8t38.5 21.5t43 32t45.5 40.5v91q-26 11 -52 16.5t-49 5.5q-54 0 -91.5 -38.5t-42.5 -122.5z" />
<glyph unicode="&#xab;" horiz-adv-x="918" d="M35 535l290 362h247l-298 -361q5 -9 12 -14q5 -7 10 -13t10 -11l77 -92q25 -29 52.5 -62.5t54.5 -64.5q5 -5 10.5 -12t11.5 -15q5 -7 13.5 -17.5t17 -22t16 -21t10.5 -13.5h-243zM318 535l291 362h248l-299 -362q6 -8 12 -14.5t12 -14.5q12 -14 24 -28.5t24 -29.5 q9 -11 19 -22t20 -23h-1q8 -8 14.5 -17.5t14.5 -17.5q11 -14 24.5 -30t25.5 -30q10 -12 25.5 -30t31 -37.5t29.5 -36.5t22 -26h-244z" />
<glyph unicode="&#xac;" horiz-adv-x="1005" d="M9 495v185h920v-550h-189v365h-731z" />
<glyph unicode="&#xad;" horiz-adv-x="750" d="M75 495v191h599v-191h-599z" />
<glyph unicode="&#xae;" horiz-adv-x="1542" d="M51 692q0 150 52 277t159 231q214 211 509 211q294 0 509 -211q211 -207 211 -506q0 -296 -210 -506q-212 -211 -508 -211q-300 0 -511 210t-211 505zM233 692q0 -52 11.5 -103t32.5 -100t50 -93.5t64 -82.5l-1 2q78 -72 176.5 -114.5t204.5 -42.5q112 0 207.5 38.5 t173.5 118.5q158 160 158 377q0 222 -159 381q-158 159 -380 159q-223 0 -380 -159q-158 -158 -158 -381zM471 217v972h292q82 0 144.5 -19.5t107.5 -55.5q99 -79 99 -208q0 -100 -51.5 -169.5t-142.5 -105.5q5 -8 12 -18t13 -18q12 -17 24.5 -36t23.5 -36q8 -13 17 -26.5 t18 -26.5q17 -27 39.5 -62t45.5 -70.5t44 -67.5t35 -53h-228l-233 381h-66v-381h-194zM665 772h117q63 0 101 33q17 18 26 38.5t9 47.5q0 121 -157 121h-96v-240z" />
<glyph unicode="&#xaf;" horiz-adv-x="850" d="M75 1670v192h869v-192h-869z" />
<glyph unicode="&#xb0;" horiz-adv-x="663" d="M51 1112q0 113 82 195q83 83 196 83q118 0 199 -83q84 -82 84 -195q0 -115 -84 -201q-80 -82 -196 -82q-114 0 -197 83q-84 84 -84 200zM236 1112q0 -45 27 -75q14 -15 31 -22t35 -7q40 0 65 29q32 34 32 75q0 42 -27 71q-27 27 -67 27q-19 0 -37 -7t-32 -22 q-27 -27 -27 -69z" />
<glyph unicode="&#xb1;" horiz-adv-x="998" d="M39 0v186h920v-186h-920zM39 564v188h366v364h186v-364h368v-188h-368v-367h-186v367h-366z" />
<glyph unicode="&#xb2;" horiz-adv-x="674" d="M59 820v168l229 224q49 47 78 80.5t45 59.5t21 47t5 42q0 81 -86 81q-74 0 -252 -156v246q69 47 132 71t126 24t113.5 -18.5t86 -51.5t54.5 -80t19 -104q0 -39 -11 -79t-35.5 -84t-65 -94t-100.5 -110q-12 -11 -20.5 -19.5t-17 -16.5t-17.5 -17l-22 -22h291v-191h-573z " />
<glyph unicode="&#xb3;" horiz-adv-x="674" d="M60 863v218q159 -101 230 -101q54 0 85 27t31 72q0 93 -153 93h-119v183h110q137 0 137 98q0 66 -81 66q-47 0 -209 -84v208q66 32 121.5 46t103.5 14q59 0 106 -17.5t80 -49t51 -75t18 -96.5q0 -63 -16.5 -109.5t-54.5 -79.5q45 -35 69 -86t24 -111t-20.5 -111 t-59.5 -88.5t-96 -59t-129 -21.5q-54 0 -110.5 15.5t-117.5 48.5z" />
<glyph unicode="&#xb4;" horiz-adv-x="559" d="M21 1059l289 404h232l-307 -404h-214z" />
<glyph unicode="&#xb5;" horiz-adv-x="927" d="M75 -348v1372h194v-563q0 -79 12 -135t36.5 -92t61.5 -53t88 -17q52 0 92 19t71 55q66 78 66 213v573h194v-1024h-194v61q-98 -84 -243 -84q-55 0 -100.5 11t-83.5 35v-371h-194z" />
<glyph unicode="&#xb6;" horiz-adv-x="873" d="M38 1095q0 133 83 213q42 42 92.5 62t107.5 20h497v-189h-117v-1201h-188v1201h-65v-1201h-189v807q-44 8 -78.5 29t-64.5 53q-78 84 -78 206z" />
<glyph unicode="&#xb7;" horiz-adv-x="362" d="M53 685q0 27 9.5 50.5t27 40t41 26t50.5 9.5q26 0 49.5 -9.5t41 -26t28 -40t10.5 -50.5q0 -26 -10.5 -49t-28 -40.5t-41 -28t-49.5 -10.5q-27 0 -50.5 10.5t-41 28t-27 40.5t-9.5 49z" />
<glyph unicode="&#xb8;" horiz-adv-x="510" d="M66 -198q53 -8 85 -10.5t46 -2.5q87 0 87 25q0 21 -74 21q-16 0 -80 -6h-6q-5 0 -10 -0.5t-10 -0.5h-6v284h175v-105q105 -8 153 -55t48 -132q0 -207 -283 -207q-17 0 -47 2t-78 8v179z" />
<glyph unicode="&#xb9;" horiz-adv-x="674" d="M54 1419v197l374 117v-729h168v-184h-531v184h175v477q-1 -1 -1 0h-1q-12 -5 -23.5 -9.5t-20.5 -6.5q-12 -5 -28 -10.5t-32 -10.5q-8 -3 -19.5 -6.5t-23.5 -7t-22 -7t-15 -4.5z" />
<glyph unicode="&#xba;" horiz-adv-x="839" d="M53 1012q0 91 26.5 163t77.5 125q107 107 268 107q81 0 148 -28.5t115 -80.5t72.5 -123.5t24.5 -160.5q0 -85 -23.5 -153.5t-73.5 -125.5q-100 -115 -269 -115q-83 0 -149.5 27.5t-117.5 85.5q-48 55 -73.5 124t-25.5 155zM248 1011q0 -99 49 -153q44 -53 124 -53 q81 0 124 55.5t43 155.5q0 98 -42.5 153t-122.5 55t-125 -54q-50 -58 -50 -159z" />
<glyph unicode="&#xbb;" horiz-adv-x="921" d="M61 897h247l293 -356l-289 -363h-250l299 363q-11 14 -23 28t-26 30q-33 39 -69.5 81t-68.5 81q-2 2 -3 4t-3 4t-3 4q-10 12 -24.5 29.5t-30 35.5t-29 34t-20.5 25zM345 897h245l296 -358l-294 -361h-246l298 364q-5 6 -9 10.5t-10 11.5q-33 40 -68.5 82t-70.5 81 q-12 14 -31.5 37.5t-40.5 48.5t-40 48t-29 36z" />
<glyph unicode="&#xbc;" horiz-adv-x="1415" d="M49 1118v198l374 117v-913h-188v660q-2 -1 -5 -2l-6 -2h1q-7 -2 -14 -4.5t-21 -6.5h1q-14 -4 -27.5 -8.5t-27.5 -9.5zM200 0l834 1390h216l-833 -1390h-217zM733 195v131l370 543h164v-494h98v-180h-98v-195h-184v195h-350zM948 375h34l-2 -4q-5 -10 -16 -25zM982 375 h101v151q-4 -4 -5 -7l1 1q-4 -6 -7.5 -11.5t-7.5 -10.5q-5 -8 -10 -15.5t-10 -14.5h1q-10 -14 -18 -26.5t-16 -23.5l-20 -29h1q-3 -5 -5.5 -8t-4.5 -6zM1083 526v65l35 -11q-7 -9 -13.5 -20t-13.5 -21q-5 -6 -8 -13z" />
<glyph unicode="&#xbd;" horiz-adv-x="1485" d="M50 1119v197l375 117v-913h-188v660q-1 0 -1.5 -0.5t-1.5 -0.5q-14 -5 -29.5 -9.5t-29.5 -9.5t-34.5 -12t-38.5 -12q-5 -2 -12.5 -4.5t-15.5 -5t-14.5 -4.5t-9.5 -3zM202 0l835 1390h215l-832 -1390h-218zM862 0v166l231 227q78 81 112 134.5t34 94.5q0 80 -85 80 q-80 0 -253 -154v245q70 46 134.5 70t124.5 24q63 0 113 -18.5t85.5 -52t54.5 -80t19 -103.5q0 -40 -9 -79t-32.5 -82t-64.5 -93t-104 -112q-23 -22 -41 -39t-37 -36h290v-192h-572z" />
<glyph unicode="&#xbe;" horiz-adv-x="1452" d="M55 563v218q159 -101 230 -101q54 0 84.5 27t30.5 72q0 93 -152 93h-119v183h110q137 0 137 98q0 66 -81 66q-47 0 -209 -84v208q65 32 121 46t104 14q59 0 106 -17.5t80 -49t51 -75t18 -96.5q0 -63 -17 -108.5t-54 -79.5q45 -35 69.5 -86.5t24.5 -111.5t-20.5 -111 t-59.5 -88.5t-96 -59t-130 -21.5q-54 0 -110.5 15.5t-117.5 48.5zM230 0l836 1390h216l-834 -1390h-218zM764 195v131l369 543h166v-494h99v-180h-99v-195h-184v195h-351zM1016 375h99v150l-5 -5q-3 -3 -5 -6l1 1q-8 -12 -16.5 -24.5t-16.5 -23.5q-5 -10 -11 -18.5 t-12 -17.5t-10.5 -17t-9.5 -16q-4 -6 -4.5 -7t-0.5 -2t-1.5 -3.5t-7.5 -10.5zM1115 525v65l35 -11q-5 -8 -11.5 -17.5t-12.5 -17.5q-3 -5 -5.5 -9.5t-5.5 -9.5z" />
<glyph unicode="&#xbf;" horiz-adv-x="809" d="M31 -50q0 57 15.5 105t41 89t57.5 76t65 67q40 39 67 66t42.5 48t22 40t6.5 42q0 16 -4 38t-10 47.5t-13.5 51.5t-14.5 49h185q9 -20 16 -43.5t12.5 -48t8.5 -48.5t3 -45q0 -48 -13 -89t-36 -77t-54 -69t-66 -64q-24 -22 -48.5 -47t-43.5 -53t-31 -59.5t-12 -67.5 q0 -72 47 -112.5t123 -40.5q38 0 70 6.5t62 18.5l-1 -1q61 25 135 107l119 -150q-131 -120 -216 -148q-37 -11 -80.5 -18t-89.5 -7q-78 0 -144.5 22.5t-115.5 65.5t-77 106t-28 143zM294 912q0 27 9.5 50.5t27 41t41 27t51.5 9.5q27 0 50.5 -9.5t40 -27t26 -41t9.5 -50.5 q0 -57 -35.5 -92t-90.5 -35q-28 0 -51.5 9t-41 26t-27 40t-9.5 52z" />
<glyph unicode="&#xc0;" d="M27 0l541 1434h165l535 -1434h-221l-151 411h-495q-18 -48 -38 -100.5t-40 -106.5t-39.5 -106t-35.5 -98h-221zM387 1873h232l289 -404h-217zM474 608h349l-176 477q-3 -8 -7 -17.5t-7 -17.5q-27 -77 -54 -150q-5 -12 -9.5 -25t-9.5 -25q-17 -48 -33.5 -94.5t-33.5 -92.5 l-6 -16q-2 -6 -4 -10l-3 -11zM611 1184l76 -1q0 -1 -3 -6.5t-6 -12t-6 -12t-3 -6.5l-2 -3l-16 -50l-26 52v1q-2 5 -5.5 14.5t-8.5 23.5z" />
<glyph unicode="&#xc1;" d="M27 0l541 1434h165l535 -1434h-221l-151 411h-495q-18 -48 -38 -100.5t-40 -106.5t-39.5 -106t-35.5 -98h-221zM387 1469l289 404h232l-307 -404h-214zM474 608h349l-176 477q-3 -8 -7 -17.5t-7 -17.5q-27 -77 -54 -150q-5 -12 -9.5 -25t-9.5 -25q-17 -48 -33.5 -94.5 t-33.5 -92.5l-6 -16q-2 -6 -4 -10l-3 -11zM611 1184l76 -1q0 -1 -3 -6.5t-6 -12t-6 -12t-3 -6.5l-2 -3l-16 -50l-26 52v1q-2 5 -5.5 14.5t-8.5 23.5z" />
<glyph unicode="&#xc2;" d="M27 0l541 1434h165l535 -1434h-221l-151 411h-495q-18 -48 -38 -100.5t-40 -106.5t-39.5 -106t-35.5 -98h-221zM329 1469l269 411h101l267 -411h-209l-111 168q-6 -8 -11.5 -17t-11.5 -19q-8 -12 -16 -24.5t-16 -24.5t-16.5 -24t-16.5 -25v1q-5 -7 -12.5 -18.5 t-10.5 -16.5h-206zM474 608h349l-176 477q-3 -8 -7 -17.5t-7 -17.5q-27 -77 -54 -150q-5 -12 -9.5 -25t-9.5 -25q-17 -48 -33.5 -94.5t-33.5 -92.5l-6 -16q-2 -6 -4 -10l-3 -11zM611 1184l76 -1q0 -1 -3 -6.5t-6 -12t-6 -12t-3 -6.5l-2 -3l-16 -50l-26 52v1q-2 5 -5.5 14.5 t-8.5 23.5z" />
<glyph unicode="&#xc3;" d="M27 0l541 1434h165l535 -1434h-221l-151 411h-495q-18 -48 -38 -100.5t-40 -106.5t-39.5 -106t-35.5 -98h-221zM315 1469q0 81 14.5 139.5t39.5 91.5q29 36 69.5 57t88.5 21q82 0 179 -79q43 -40 68 -40q13 0 21.5 33.5t8.5 97.5h177q0 -72 -15 -129.5t-43 -98t-68 -62 t-89 -21.5q-40 0 -84 21.5t-88 59.5q-39 36 -69 36q-35 0 -35 -127h-175zM474 608h349l-176 477q-3 -8 -7 -17.5t-7 -17.5q-27 -77 -54 -150q-5 -12 -9.5 -25t-9.5 -25q-17 -48 -33.5 -94.5t-33.5 -92.5l-6 -16q-2 -6 -4 -10l-3 -11zM611 1184l76 -1q0 -1 -3 -6.5t-6 -12 t-6 -12t-3 -6.5l-2 -3l-16 -50l-26 52v1q-2 5 -5.5 14.5t-8.5 23.5z" />
<glyph unicode="&#xc4;" d="M27 0l541 1434h165l535 -1434h-221l-151 411h-495q-18 -48 -38 -100.5t-40 -106.5t-39.5 -106t-35.5 -98h-221zM378 1588q0 26 10 47.5t26.5 37t38 24t43.5 8.5q24 0 46 -8.5t39 -24t27.5 -37t10.5 -47.5q0 -25 -9 -47t-25.5 -38t-38.5 -25t-48 -9q-23 0 -44.5 8.5 t-38.5 24t-27 37.5t-10 49zM474 608h349l-176 477q-3 -8 -7 -17.5t-7 -17.5q-27 -77 -54 -150q-5 -12 -9.5 -25t-9.5 -25q-17 -48 -33.5 -94.5t-33.5 -92.5l-6 -16q-2 -6 -4 -10l-3 -11zM611 1184l76 -1q0 -1 -3 -6.5t-6 -12t-6 -12t-3 -6.5l-2 -3l-16 -50l-26 52v1 q-2 5 -5.5 14.5t-8.5 23.5zM675 1588q0 26 10 47.5t26.5 37t38 24t43.5 8.5q23 0 45.5 -8.5t40 -24t28 -37t10.5 -47.5q0 -25 -10 -47t-26.5 -38t-38.5 -25t-47 -9q-23 0 -44.5 8.5t-38 24t-27 37.5t-10.5 49z" />
<glyph unicode="&#xc5;" horiz-adv-x="1307" d="M33 0l488 1290q-107 61 -107 194q0 51 18 90.5t54 73.5q69 63 170 63q49 0 91.5 -16.5t77.5 -46.5q33 -32 53 -73t20 -91q0 -129 -107 -190q12 -31 23.5 -61t22.5 -61q10 -29 22 -60t23 -60q20 -54 39.5 -107t39.5 -107q14 -37 28 -75t28 -74q2 -3 2 -6t2 -7 q3 -8 7.5 -18.5t6.5 -17.5q28 -74 59 -156.5t62 -166.5t61.5 -165t56.5 -152h-221l-151 411h-495q-18 -48 -38 -100.5t-40 -106.5t-39.5 -106t-35.5 -98h-221zM480 608h349l-176 477q-3 -8 -7 -17.5t-7 -17.5q-27 -77 -54 -150q-5 -12 -9.5 -25t-9.5 -25 q-17 -48 -33.5 -94.5t-33.5 -92.5l-6 -17q-2 -5 -3 -10l-4 -10zM583 1344l70 -51q4 2 6.5 3.5t4.5 3.5l44 -28q-2 -17 -3.5 -28t-3.5 -17l1 1q-2 -10 -6 -23.5t-16 -43.5l-48 10q-14 13 -15 17t-2 9q-2 5 -4 12.5t-4 12.5q-2 4 -2 10q0 1 -0.5 1.5t-0.5 1.5l1 -7 q-2 4 -3.5 10t-4 18.5t-6 33.5t-8.5 54zM596 1484q0 -22 17 -36t43 -14t43.5 14t17.5 36q0 25 -18 38t-43 13q-27 0 -43.5 -14t-16.5 -37zM613 1228h59l24 -29q-1 -2 -3.5 -9t-3.5 -9v1q-1 -2 -1 -6q-1 -2 -5 -11.5t-9.5 -22.5t-12 -27t-10.5 -24q-14 35 -20.5 54.5 t-8.5 26.5q-2 2 -2 7q-4 7 -4 15q-1 4 -2 15t-1 19zM614 1224l40 -42q-11 1 -20 5q-8 4 -14 12.5t-6 24.5zM617 1184l76 -1q0 -1 -3 -6.5t-6 -12t-6 -12t-3 -6.5l-2 -3l-16 -50l-26 52v1q-2 5 -5.5 14.5t-8.5 23.5zM633 1204q0 -11 0.5 -18.5t2 -10t5.5 1.5t11 18l-11 17z M634 1224h19l-12 -12z" />
<glyph unicode="&#xc7;" horiz-adv-x="1249" d="M47 690q0 344 202 555q102 106 228 158.5t283 52.5q116 -2 225.5 -48t216.5 -137l-159 -142q-71 66 -142.5 98.5t-142.5 32.5q-52 0 -102.5 -11.5t-97 -32t-88.5 -48.5t-77 -61l1 2q-66 -76 -102.5 -179.5t-36.5 -230.5q0 -115 36 -215.5t95 -171.5q66 -63 153 -100.5 t184 -37.5q72 0 143.5 32.5t141.5 98.5l159 -142q-213 -182 -452 -186q-296 0 -483 199q-185 200 -185 514zM420 -198q53 -8 85 -10.5t46 -2.5q87 0 87 25q0 21 -74 21q-16 0 -80 -6h-6q-5 0 -10 -0.5t-10 -0.5h-6v284h175v-105q105 -8 153 -55t48 -132q0 -207 -283 -207 q-17 0 -47 2t-78 8v179z" />
<glyph unicode="&#xc8;" horiz-adv-x="881" d="M71 0v1434h731v-197h-526v-416h489v-196h-489v-428h557v-197h-762zM180 1873h232l289 -404h-217z" />
<glyph unicode="&#xc9;" horiz-adv-x="881" d="M71 0v1434h731v-197h-526v-416h489v-196h-489v-428h557v-197h-762zM180 1469l289 404h232l-307 -404h-214z" />
<glyph unicode="&#xca;" horiz-adv-x="881" d="M71 0v1434h731v-197h-526v-416h489v-196h-489v-428h557v-197h-762zM122 1469l269 411h101l267 -411h-209l-111 168q-6 -8 -11.5 -17t-11.5 -19q-8 -12 -16 -24.5t-16 -24.5t-16.5 -24t-16.5 -25v1q-5 -7 -12.5 -18.5t-10.5 -16.5h-206z" />
<glyph unicode="&#xcb;" horiz-adv-x="881" d="M71 0v1434h731v-197h-526v-416h489v-196h-489v-428h557v-197h-762zM171 1588q0 26 10 47.5t26.5 37t38 24t43.5 8.5q24 0 46 -8.5t39 -24t27.5 -37t10.5 -47.5q0 -25 -9 -47t-25.5 -38t-38.5 -25t-48 -9q-23 0 -44.5 8.5t-38.5 24t-27 37.5t-10 49zM468 1588 q0 26 10 47.5t26.5 37t38 24t43.5 8.5q23 0 45.5 -8.5t40 -24t28 -37t10.5 -47.5q0 -25 -10 -47t-26.5 -38t-38.5 -25t-47 -9q-23 0 -44.5 8.5t-38 24t-27 37.5t-10.5 49z" />
<glyph unicode="&#xcc;" horiz-adv-x="463" d="M-92 1811h232l289 -404h-217zM72 0v1434h205v-1434h-205z" />
<glyph unicode="&#xcd;" horiz-adv-x="463" d="M54 1407l289 404h232l-307 -404h-214zM72 0v1434h205v-1434h-205z" />
<glyph unicode="&#xce;" horiz-adv-x="463" d="M-105 1408l269 411h101l267 -411h-209l-111 168q-6 -8 -11.5 -17t-11.5 -19q-8 -12 -16 -24.5t-16 -24.5t-16.5 -24t-16.5 -25v1q-5 -7 -12.5 -18.5t-10.5 -16.5h-206zM72 0v1434h205v-1434h-205z" />
<glyph unicode="&#xcf;" horiz-adv-x="463" d="M-111 1526q0 26 10 47.5t26.5 37t38 24t43.5 8.5q24 0 46 -8.5t39 -24t27.5 -37t10.5 -47.5q0 -25 -9 -47t-25.5 -38t-38.5 -25t-48 -9q-23 0 -44.5 8.5t-38.5 24t-27 37.5t-10 49zM72 0v1434h205v-1434h-205zM186 1526q0 26 10 47.5t26.5 37t38 24t43.5 8.5 q23 0 45.5 -8.5t40 -24t28 -37t10.5 -47.5q0 -25 -10 -47t-26.5 -38t-38.5 -25t-47 -9q-23 0 -44.5 8.5t-38 24t-27 37.5t-10.5 49z" />
<glyph unicode="&#xd0;" horiz-adv-x="1358" d="M52 615v194h137v625h388q179 0 315 -45t228 -133t139 -218.5t47 -302.5q0 -159 -53 -294.5t-151 -238.5q-101 -100 -237.5 -151t-306.5 -51h-369v615h-137zM395 197h149q275 0 411 135q142 133 142 401q0 504 -535 504h-167v-428h372v-194h-372v-418z" />
<glyph unicode="&#xd1;" horiz-adv-x="1257" d="M73 0v1434h156l751 -1018v1018h204v-1434h-148l-758 1024v-1024h-205zM295 1469q0 81 14.5 139.5t39.5 91.5q29 36 69.5 57t88.5 21q82 0 179 -79q43 -40 68 -40q13 0 21.5 33.5t8.5 97.5h177q0 -72 -15 -129.5t-43 -98t-68 -62t-89 -21.5q-40 0 -84 21.5t-88 59.5 q-39 36 -69 36q-35 0 -35 -127h-175z" />
<glyph unicode="&#xd2;" horiz-adv-x="1453" d="M52 702q0 167 48.5 304t136.5 240q94 101 223.5 155.5t286.5 54.5q146 0 265 -50t207 -153v1q182 -200 182 -517q0 -348 -185 -554q-188 -206 -495 -206q-305 0 -488 204q-91 104 -136 232.5t-45 288.5zM259 713q0 -123 32.5 -222.5t95.5 -173.5q63 -67 146.5 -105 t185.5 -38q109 0 195 37t149 105v-1q63 73 96 176t33 232q0 128 -30 227.5t-94 170.5q-63 69 -146 104t-192 35q-101 0 -186 -39.5t-151 -108.5q-66 -74 -100 -174t-34 -225zM466 1873h232l289 -404h-217z" />
<glyph unicode="&#xd3;" horiz-adv-x="1453" d="M52 702q0 167 48.5 304t136.5 240q94 101 223.5 155.5t286.5 54.5q146 0 265 -50t207 -153v1q182 -200 182 -517q0 -348 -185 -554q-188 -206 -495 -206q-305 0 -488 204q-91 104 -136 232.5t-45 288.5zM259 713q0 -123 32.5 -222.5t95.5 -173.5q63 -67 146.5 -105 t185.5 -38q109 0 195 37t149 105v-1q63 73 96 176t33 232q0 128 -30 227.5t-94 170.5q-63 69 -146 104t-192 35q-101 0 -186 -39.5t-151 -108.5q-66 -74 -100 -174t-34 -225zM466 1469l289 404h232l-307 -404h-214z" />
<glyph unicode="&#xd4;" horiz-adv-x="1453" d="M52 702q0 167 48.5 304t136.5 240q94 101 223.5 155.5t286.5 54.5q146 0 265 -50t207 -153v1q182 -200 182 -517q0 -348 -185 -554q-188 -206 -495 -206q-305 0 -488 204q-91 104 -136 232.5t-45 288.5zM259 713q0 -123 32.5 -222.5t95.5 -173.5q63 -67 146.5 -105 t185.5 -38q109 0 195 37t149 105v-1q63 73 96 176t33 232q0 128 -30 227.5t-94 170.5q-63 69 -146 104t-192 35q-101 0 -186 -39.5t-151 -108.5q-66 -74 -100 -174t-34 -225zM408 1469l269 411h101l267 -411h-209l-111 168q-6 -8 -11.5 -17t-11.5 -19q-8 -12 -16 -24.5 t-16 -24.5t-16.5 -24t-16.5 -25v1q-5 -7 -12.5 -18.5t-10.5 -16.5h-206z" />
<glyph unicode="&#xd5;" horiz-adv-x="1453" d="M52 702q0 167 48.5 304t136.5 240q94 101 223.5 155.5t286.5 54.5q146 0 265 -50t207 -153v1q182 -200 182 -517q0 -348 -185 -554q-188 -206 -495 -206q-305 0 -488 204q-91 104 -136 232.5t-45 288.5zM259 713q0 -123 32.5 -222.5t95.5 -173.5q63 -67 146.5 -105 t185.5 -38q109 0 195 37t149 105v-1q63 73 96 176t33 232q0 128 -30 227.5t-94 170.5q-63 69 -146 104t-192 35q-101 0 -186 -39.5t-151 -108.5q-66 -74 -100 -174t-34 -225zM393 1469q0 81 14.5 139.5t39.5 91.5q29 36 69.5 57t88.5 21q82 0 179 -79q43 -40 68 -40 q13 0 21.5 33.5t8.5 97.5h177q0 -72 -15 -129.5t-43 -98t-68 -62t-89 -21.5q-40 0 -84 21.5t-88 59.5q-39 36 -69 36q-35 0 -35 -127h-175z" />
<glyph unicode="&#xd6;" horiz-adv-x="1453" d="M52 702q0 167 48.5 304t136.5 240q94 101 223.5 155.5t286.5 54.5q146 0 265 -50t207 -153v1q182 -200 182 -517q0 -348 -185 -554q-188 -206 -495 -206q-305 0 -488 204q-91 104 -136 232.5t-45 288.5zM259 713q0 -123 32.5 -222.5t95.5 -173.5q63 -67 146.5 -105 t185.5 -38q109 0 195 37t149 105v-1q63 73 96 176t33 232q0 128 -30 227.5t-94 170.5q-63 69 -146 104t-192 35q-101 0 -186 -39.5t-151 -108.5q-66 -74 -100 -174t-34 -225zM457 1588q0 26 10 47.5t26.5 37t38 24t43.5 8.5q24 0 46 -8.5t39 -24t27.5 -37t10.5 -47.5 q0 -25 -9 -47t-25.5 -38t-38.5 -25t-48 -9q-23 0 -44.5 8.5t-38.5 24t-27 37.5t-10 49zM754 1588q0 26 10 47.5t26.5 37t38 24t43.5 8.5q23 0 45.5 -8.5t40 -24t28 -37t10.5 -47.5q0 -25 -10 -47t-26.5 -38t-38.5 -25t-47 -9q-23 0 -44.5 8.5t-38 24t-27 37.5t-10.5 49z" />
<glyph unicode="&#xd7;" horiz-adv-x="977" d="M60 290l298 297q-30 30 -60.5 61t-61.5 62l-52 52q-14 13 -31.5 30t-34.5 34.5t-32.5 32.5t-25.5 26l131 131l297 -298q30 31 60 61l63 63l52 52l30 30q16 16 33 32.5t33 31.5l27 28l132 -131l-298 -299l135 -135q38 -38 82 -81t81 -80l-132 -131l-297 298 q-30 -30 -60 -60.5t-62 -62.5l-53 -53l-30 -31q-17 -16 -33.5 -32t-31.5 -32l-28 -27z" />
<glyph unicode="&#xd8;" horiz-adv-x="1500" d="M50 48l172 203q-126 191 -126 451q0 171 46.5 306t139.5 239q188 209 509 209q101 0 191.5 -26t165.5 -75q15 17 26.5 32t26.5 32v-1q3 4 6.5 8t6.5 9q3 3 9 11q3 4 6 7q9 10 22.5 26t26.5 33l148 -123l-136 -159q76 -97 115 -220t39 -273q0 -345 -184 -554 q-186 -206 -494 -206q-125 0 -227 32t-188 101l-157 -183zM305 713q0 -88 14 -160.5t44 -134.5l656 781q-103 61 -243 61q-102 0 -187.5 -39.5t-151.5 -108.5q-132 -152 -132 -399zM482 267q57 -46 128.5 -69.5t153.5 -23.5q51 0 99.5 10.5t92.5 29.5t82.5 44t69.5 55 q57 74 93.5 179.5t36.5 230.5q0 102 -22 190t-63 154z" />
<glyph unicode="&#xd9;" horiz-adv-x="1164" d="M67 564v870h205v-857q0 -403 316 -403q305 0 305 390v870h204v-849q0 -608 -526 -608q-504 0 -504 587zM321 1873h232l289 -404h-217z" />
<glyph unicode="&#xda;" horiz-adv-x="1164" d="M67 564v870h205v-857q0 -403 316 -403q305 0 305 390v870h204v-849q0 -608 -526 -608q-504 0 -504 587zM321 1469l289 404h232l-307 -404h-214z" />
<glyph unicode="&#xdb;" horiz-adv-x="1164" d="M67 564v870h205v-857q0 -403 316 -403q305 0 305 390v870h204v-849q0 -608 -526 -608q-504 0 -504 587zM263 1469l269 411h101l267 -411h-209l-111 168q-6 -8 -11.5 -17t-11.5 -19q-8 -12 -16 -24.5t-16 -24.5t-16.5 -24t-16.5 -25v1q-5 -7 -12.5 -18.5t-10.5 -16.5h-206 z" />
<glyph unicode="&#xdc;" horiz-adv-x="1164" d="M67 564v870h205v-857q0 -403 316 -403q305 0 305 390v870h204v-849q0 -608 -526 -608q-504 0 -504 587zM312 1588q0 26 10 47.5t26.5 37t38 24t43.5 8.5q24 0 46 -8.5t39 -24t27.5 -37t10.5 -47.5q0 -25 -9 -47t-25.5 -38t-38.5 -25t-48 -9q-23 0 -44.5 8.5t-38.5 24 t-27 37.5t-10 49zM609 1588q0 26 10 47.5t26.5 37t38 24t43.5 8.5q23 0 45.5 -8.5t40 -24t28 -37t10.5 -47.5q0 -25 -10 -47t-26.5 -38t-38.5 -25t-47 -9q-23 0 -44.5 8.5t-38 24t-27 37.5t-10.5 49z" />
<glyph unicode="&#xdd;" horiz-adv-x="1106" d="M27 1434h228l317 -656q42 81 84 165t87 169v-1q5 11 10.5 22.5t11.5 23.5q9 17 17 34.5t18 36.5q11 21 22.5 44t23.5 45q14 29 30.5 61.5t28.5 55.5h228l-464 -891v-543h-204v543q-14 30 -29.5 60.5t-29.5 59.5q-4 8 -11 21.5t-10 21.5v-1q-12 24 -25 49t-25 51 q-17 35 -37.5 76.5t-36.5 74.5q-7 14 -17.5 35.5t-17.5 35.5q-22 45 -49 100t-54.5 111t-52.5 107t-43 89zM326 1438l289 404h232l-307 -404h-214z" />
<glyph unicode="&#xde;" horiz-adv-x="935" d="M75 0v1434h203v-220h172q475 0 475 -427q0 -109 -34.5 -194t-104.5 -151q-70 -65 -163.5 -98t-215.5 -33h-129v-311h-203zM278 507h131q151 0 229.5 69.5t78.5 197.5q0 244 -283 244h-156v-511z" />
<glyph unicode="&#xdf;" horiz-adv-x="950" d="M70 2v1048q0 98 27 176t77 135q51 56 121.5 86t159.5 30q154 0 253 -99q98 -98 98 -255q0 -103 -41 -185.5t-116 -141.5q45 -23 84.5 -53.5t68.5 -65.5q50 -60 76 -128t26 -149q0 -91 -29 -165.5t-86 -137.5q-60 -60 -133.5 -90t-164.5 -30q-33 0 -79 8t-106 23v207 q61 -24 107.5 -37.5t74.5 -13.5q101 0 158 61q60 63 60 170q0 116 -97 193.5t-274 107.5v162q274 63 274 254q0 83 -43 131t-119 48q-88 0 -136 -66.5t-48 -187.5v-1035h-193z" />
<glyph unicode="&#xe0;" horiz-adv-x="1012" d="M51 296q8 85 44 153t90.5 113.5t124 66t144.5 12.5q48 -5 83.5 -22t59 -36t35.5 -35t14 -20v119q-5 45 -17.5 84t-33.5 67.5t-49.5 45t-64.5 16.5q-70 -1 -140.5 -32.5t-142.5 -97.5l-127 131q91 95 194 141t225 45q169 0 259.5 -102t90.5 -296v-649h-193v127 q-53 -75 -121 -112.5t-139 -37.5q-74 0 -135.5 24t-108.5 66q-92 90 -92 229zM213 1463h232l289 -404h-217zM248 294q0 -61 37 -94q36 -36 111 -36q52 0 98.5 15t79.5 39q23 20 42.5 41t28.5 38v106q-48 31 -94 44t-91 13t-83.5 -12t-67.5 -34t-45 -52.5t-16 -67.5zM645 291 v6q1 2 2 4.5t2 4.5l36 -6l-1 -9h-39z" />
<glyph unicode="&#xe1;" horiz-adv-x="1012" d="M51 296q8 85 44 153t90.5 113.5t124 66t144.5 12.5q48 -5 83.5 -22t59 -36t35.5 -35t14 -20v119q-5 45 -17.5 84t-33.5 67.5t-49.5 45t-64.5 16.5q-70 -1 -140.5 -32.5t-142.5 -97.5l-127 131q91 95 194 141t225 45q169 0 259.5 -102t90.5 -296v-649h-193v127 q-53 -75 -121 -112.5t-139 -37.5q-74 0 -135.5 24t-108.5 66q-92 90 -92 229zM246 1059l289 404h232l-307 -404h-214zM248 294q0 -61 37 -94q36 -36 111 -36q52 0 98.5 15t79.5 39q23 20 42.5 41t28.5 38v106q-48 31 -94 44t-91 13t-83.5 -12t-67.5 -34t-45 -52.5t-16 -67.5 zM645 291v6q1 2 2 4.5t2 4.5l36 -6l-1 -9h-39z" />
<glyph unicode="&#xe2;" horiz-adv-x="1012" d="M51 296q8 85 44 153t90.5 113.5t124 66t144.5 12.5q48 -5 83.5 -22t59 -36t35.5 -35t14 -20v119q-5 45 -17.5 84t-33.5 67.5t-49.5 45t-64.5 16.5q-70 -1 -140.5 -32.5t-142.5 -97.5l-127 131q91 95 194 141t225 45q169 0 259.5 -102t90.5 -296v-649h-193v127 q-53 -75 -121 -112.5t-139 -37.5q-74 0 -135.5 24t-108.5 66q-92 90 -92 229zM173 1059l269 411h101l267 -411h-209l-111 168q-6 -8 -11.5 -17t-11.5 -19q-8 -12 -16 -24.5t-16 -24.5t-16.5 -24t-16.5 -25v1q-5 -7 -12.5 -18.5t-10.5 -16.5h-206zM248 294q0 -61 37 -94 q36 -36 111 -36q52 0 98.5 15t79.5 39q23 20 42.5 41t28.5 38v106q-48 31 -94 44t-91 13t-83.5 -12t-67.5 -34t-45 -52.5t-16 -67.5zM645 291v6q1 2 2 4.5t2 4.5l36 -6l-1 -9h-39z" />
<glyph unicode="&#xe3;" horiz-adv-x="1012" d="M51 296q8 85 44 153t90.5 113.5t124 66t144.5 12.5q48 -5 83.5 -22t59 -36t35.5 -35t14 -20v119q-5 45 -17.5 84t-33.5 67.5t-49.5 45t-64.5 16.5q-70 -1 -140.5 -32.5t-142.5 -97.5l-127 131q91 95 194 141t225 45q169 0 259.5 -102t90.5 -296v-649h-193v127 q-53 -75 -121 -112.5t-139 -37.5q-74 0 -135.5 24t-108.5 66q-92 90 -92 229zM219 1059q0 81 14.5 139.5t39.5 91.5q29 36 69.5 57t88.5 21q82 0 179 -79q43 -40 68 -40q13 0 21.5 33.5t8.5 97.5h177q0 -72 -15 -129.5t-43 -98t-68 -62t-89 -21.5q-40 0 -84 21.5t-88 59.5 q-39 36 -69 36q-35 0 -35 -127h-175zM248 294q0 -61 37 -94q36 -36 111 -36q52 0 98.5 15t79.5 39q23 20 42.5 41t28.5 38v106q-48 31 -94 44t-91 13t-83.5 -12t-67.5 -34t-45 -52.5t-16 -67.5zM645 291v6q1 2 2 4.5t2 4.5l36 -6l-1 -9h-39z" />
<glyph unicode="&#xe4;" horiz-adv-x="1012" d="M51 296q8 85 44 153t90.5 113.5t124 66t144.5 12.5q48 -5 83.5 -22t59 -36t35.5 -35t14 -20v119q-5 45 -17.5 84t-33.5 67.5t-49.5 45t-64.5 16.5q-70 -1 -140.5 -32.5t-142.5 -97.5l-127 131q91 95 194 141t225 45q169 0 259.5 -102t90.5 -296v-649h-193v127 q-53 -75 -121 -112.5t-139 -37.5q-74 0 -135.5 24t-108.5 66q-92 90 -92 229zM154 1178q0 26 10 47.5t26.5 37t38 24t43.5 8.5q24 0 46 -8.5t39 -24t27.5 -37t10.5 -47.5q0 -25 -9 -47t-25.5 -38t-38.5 -25t-48 -9q-23 0 -44.5 8.5t-38.5 24t-27 37.5t-10 49zM248 294 q0 -61 37 -94q36 -36 111 -36q52 0 98.5 15t79.5 39q23 20 42.5 41t28.5 38v106q-48 31 -94 44t-91 13t-83.5 -12t-67.5 -34t-45 -52.5t-16 -67.5zM451 1178q0 26 10 47.5t26.5 37t38 24t43.5 8.5q23 0 45.5 -8.5t40 -24t28 -37t10.5 -47.5q0 -25 -10 -47t-26.5 -38 t-38.5 -25t-47 -9q-23 0 -44.5 8.5t-38 24t-27 37.5t-10.5 49zM645 291v6q1 2 2 4.5t2 4.5l36 -6l-1 -9h-39z" />
<glyph unicode="&#xe5;" horiz-adv-x="887" d="M41 351q8 85 44 153t90.5 113.5t124 66t144.5 12.5q48 -5 83.5 -22t59 -36t35.5 -35t14 -20v119q-5 45 -17.5 84t-33.5 67.5t-49.5 45t-64.5 16.5q-70 -1 -140.5 -32.5t-142.5 -97.5l-127 131q91 95 194 141t225 45q169 0 259.5 -102t90.5 -296v-649h-193v127 q-53 -75 -121 -112.5t-139 -37.5q-74 0 -135.5 24t-108.5 66q-92 90 -92 229zM220 1278q0 47 18 88t52 72q33 31 74.5 45.5t89.5 14.5q49 0 90.5 -14.5t74.5 -45.5q69 -62 69 -160q0 -48 -16.5 -88t-53.5 -73q-35 -28 -75.5 -43t-88.5 -15q-49 0 -91 14.5t-74 40.5 q-69 62 -69 164zM238 349q0 -61 37 -94q36 -36 111 -36q52 0 98.5 15t79.5 39q23 20 42.5 41t28.5 38v106q-48 31 -94 44t-91 13t-83.5 -12t-67.5 -34t-45 -52.5t-16 -67.5zM397 1278q0 -23 16 -35.5t41 -12.5q26 0 43 13.5t17 34.5q0 25 -17.5 37t-42.5 12q-26 0 -41.5 -13 t-15.5 -36zM635 346v6q1 2 2 4.5t2 4.5l36 -6l-1 -9h-39z" />
<glyph unicode="&#xe7;" horiz-adv-x="909" d="M49 496q0 118 38.5 218.5t105.5 175.5q72 75 165.5 116t204.5 41q154 2 328 -114l-112 -152q-131 79 -228 79q-69 0 -122 -24.5t-96 -73.5q-45 -51 -66 -116t-21 -146q0 -157 78 -248q38 -44 87 -66t113 -22q57 0 119.5 23.5t130.5 72.5l112 -161q-106 -60 -197 -91 t-169 -31q-108 0 -193.5 37t-151.5 109q-62 72 -94 165t-32 208zM412 -198q53 -8 85 -10.5t46 -2.5q87 0 87 25q0 21 -74 21q-16 0 -80 -6h-6q-5 0 -10 -0.5t-10 -0.5h-6v284h175v-105q105 -8 153 -55t48 -132q0 -207 -283 -207q-17 0 -47 2t-78 8v179z" />
<glyph unicode="&#xe8;" horiz-adv-x="1034" d="M52 518q0 109 32.5 202.5t93.5 168.5q66 74 152.5 116t186.5 42q97 0 174 -38t131 -105q47 -66 74.5 -158.5t27.5 -200.5v-92h-672q6 -63 23 -116t47 -87q69 -86 197 -86q133 0 288 125l99 -160q-106 -76 -205.5 -114t-199.5 -38q-98 0 -181 38.5t-145 108.5 q-60 71 -91.5 168.5t-31.5 225.5zM263 1463h232l289 -404h-217zM264 639h458q-13 107 -67 164t-142 57q-52 0 -96 -18t-78 -52q-25 -26 -44 -64.5t-31 -86.5z" />
<glyph unicode="&#xe9;" horiz-adv-x="1034" d="M52 518q0 109 32.5 202.5t93.5 168.5q66 74 152.5 116t186.5 42q97 0 174 -38t131 -105q47 -66 74.5 -158.5t27.5 -200.5v-92h-672q6 -63 23 -116t47 -87q69 -86 197 -86q133 0 288 125l99 -160q-106 -76 -205.5 -114t-199.5 -38q-98 0 -181 38.5t-145 108.5 q-60 71 -91.5 168.5t-31.5 225.5zM264 639h458q-13 107 -67 164t-142 57q-52 0 -96 -18t-78 -52q-25 -26 -44 -64.5t-31 -86.5zM283 1059l289 404h232l-307 -404h-214z" />
<glyph unicode="&#xea;" horiz-adv-x="1034" d="M52 518q0 109 32.5 202.5t93.5 168.5q66 74 152.5 116t186.5 42q97 0 174 -38t131 -105q47 -66 74.5 -158.5t27.5 -200.5v-92h-672q6 -63 23 -116t47 -87q69 -86 197 -86q133 0 288 125l99 -160q-106 -76 -205.5 -114t-199.5 -38q-98 0 -181 38.5t-145 108.5 q-60 71 -91.5 168.5t-31.5 225.5zM207 1059l269 411h101l267 -411h-209l-111 168q-6 -8 -11.5 -17t-11.5 -19q-8 -12 -16 -24.5t-16 -24.5t-16.5 -24t-16.5 -25v1q-5 -7 -12.5 -18.5t-10.5 -16.5h-206zM264 639h458q-13 107 -67 164t-142 57q-52 0 -96 -18t-78 -52 q-25 -26 -44 -64.5t-31 -86.5z" />
<glyph unicode="&#xeb;" horiz-adv-x="1034" d="M52 518q0 109 32.5 202.5t93.5 168.5q66 74 152.5 116t186.5 42q97 0 174 -38t131 -105q47 -66 74.5 -158.5t27.5 -200.5v-92h-672q6 -63 23 -116t47 -87q69 -86 197 -86q133 0 288 125l99 -160q-106 -76 -205.5 -114t-199.5 -38q-98 0 -181 38.5t-145 108.5 q-60 71 -91.5 168.5t-31.5 225.5zM191 1178q0 26 10 47.5t26.5 37t38 24t43.5 8.5q24 0 46 -8.5t39 -24t27.5 -37t10.5 -47.5q0 -25 -9 -47t-25.5 -38t-38.5 -25t-48 -9q-23 0 -44.5 8.5t-38.5 24t-27 37.5t-10 49zM264 639h458q-13 107 -67 164t-142 57q-52 0 -96 -18 t-78 -52q-25 -26 -44 -64.5t-31 -86.5zM488 1178q0 26 10 47.5t26.5 37t38 24t43.5 8.5q23 0 45.5 -8.5t40 -24t28 -37t10.5 -47.5q0 -25 -10 -47t-26.5 -38t-38.5 -25t-47 -9q-23 0 -44.5 8.5t-38 24t-27 37.5t-10.5 49z" />
<glyph unicode="&#xec;" horiz-adv-x="560" d="M28 1518h232l289 -404h-217zM162 0v1024h194v-1024h-194z" />
<glyph unicode="&#xed;" horiz-adv-x="562" d="M116 1114l289 404h232l-307 -404h-214zM233 0v1024h193v-1024h-193z" />
<glyph unicode="&#xee;" horiz-adv-x="673" d="M105 1114l269 411h101l267 -411h-209l-111 168q-6 -8 -11.5 -17t-11.5 -19q-8 -12 -16 -24.5t-16 -24.5t-16.5 -24t-16.5 -25v1q-5 -7 -12.5 -18.5t-10.5 -16.5h-206zM305 0v1024h193v-1024h-193z" />
<glyph unicode="&#xef;" horiz-adv-x="611" d="M69 1233q0 26 10 47.5t26.5 37t38 24t43.5 8.5q24 0 46 -8.5t39 -24t27.5 -37t10.5 -47.5q0 -25 -9 -47t-25.5 -38t-38.5 -25t-48 -9q-23 0 -44.5 8.5t-38.5 24t-27 37.5t-10 49zM272 0v1024h193v-1024h-193zM366 1233q0 26 10 47.5t26.5 37t38 24t43.5 8.5 q23 0 45.5 -8.5t40 -24t28 -37t10.5 -47.5q0 -25 -10 -47t-26.5 -38t-38.5 -25t-47 -9q-23 0 -44.5 8.5t-38 24t-27 37.5t-10.5 49z" />
<glyph unicode="&#xf0;" horiz-adv-x="1026" d="M48 506q0 120 32.5 215.5t95.5 170.5q22 26 46 47.5t50 38.5q-5 -3 -10 -5.5t-8 -4.5l-79 164l221 108q-53 43 -129 97.5t-174 122.5h327q41 -28 81.5 -59.5t78.5 -66.5l4 2q8 5 16.5 8t17.5 8q21 11 45 23t45 21h-1q17 8 33.5 17t33.5 17q5 3 13 6.5t16 7.5h-1q6 3 15 7 t17.5 8.5t16 8t10.5 5.5l82 -163l-232 -113q57 -66 102 -143.5t77 -155.5q18 -45 32.5 -94.5t25 -100t16 -99.5t5.5 -94q0 -115 -29.5 -209t-88.5 -170q-127 -154 -340 -154q-225 0 -346 150q-117 144 -117 379zM244 504q0 -166 75 -254q69 -86 194 -86q117 0 185 87 q75 93 75 261q0 348 -253 348q-61 0 -110.5 -22.5t-84.5 -68.5q-81 -102 -81 -265zM359 1021q75 26 161 26q19 0 35.5 -1t33.5 -3q-14 16 -28 33t-28 33q-7 -4 -13 -7.5t-13 -6.5q-8 -5 -17.5 -9t-17.5 -9q-25 -13 -54.5 -27.5t-58.5 -28.5z" />
<glyph unicode="&#xf1;" horiz-adv-x="1096" d="M75 0v1024h194v-62q55 45 119.5 65.5t140.5 19.5q87 0 154.5 -29t113 -84.5t69.5 -136.5t24 -186v-611h-194v586q0 131 -47.5 198.5t-130.5 75.5q-78 -11 -144.5 -46.5t-104.5 -97.5v-716h-194zM291 1059q0 81 14.5 139.5t39.5 91.5q29 36 69.5 57t88.5 21q82 0 179 -79 q43 -40 68 -40q13 0 21.5 33.5t8.5 97.5h177q0 -72 -15 -129.5t-43 -98t-68 -62t-89 -21.5q-40 0 -84 21.5t-88 59.5q-39 36 -69 36q-35 0 -35 -127h-175z" />
<glyph unicode="&#xf2;" horiz-adv-x="1149" d="M54 506q0 123 35.5 222t101.5 172q68 69 160.5 108t200.5 39q219 0 349 -147q64 -73 96 -169t32 -221q0 -116 -33.5 -211.5t-96.5 -169.5q-63 -73 -154 -112.5t-203 -39.5t-202.5 38t-156.5 113q-63 73 -96 167t-33 211zM252 504q0 -157 80 -250q78 -90 213 -90 q68 0 121 23.5t90 63.5q36 45 56 111.5t20 149.5q0 170 -73 259t-210 89q-138 0 -217 -90q-80 -92 -80 -266zM286 1463h232l289 -404h-217z" />
<glyph unicode="&#xf3;" horiz-adv-x="1149" d="M54 506q0 123 35.5 222t101.5 172q68 69 160.5 108t200.5 39q219 0 349 -147q64 -73 96 -169t32 -221q0 -116 -33.5 -211.5t-96.5 -169.5q-63 -73 -154 -112.5t-203 -39.5t-202.5 38t-156.5 113q-63 73 -96 167t-33 211zM252 504q0 -157 80 -250q78 -90 213 -90 q68 0 121 23.5t90 63.5q36 45 56 111.5t20 149.5q0 170 -73 259t-210 89q-138 0 -217 -90q-80 -92 -80 -266zM335 1059l289 404h232l-307 -404h-214z" />
<glyph unicode="&#xf4;" horiz-adv-x="1149" d="M54 506q0 123 35.5 222t101.5 172q68 69 160.5 108t200.5 39q219 0 349 -147q64 -73 96 -169t32 -221q0 -116 -33.5 -211.5t-96.5 -169.5q-63 -73 -154 -112.5t-203 -39.5t-202.5 38t-156.5 113q-63 73 -96 167t-33 211zM251 1059l269 411h101l267 -411h-209l-111 168 q-6 -8 -11.5 -17t-11.5 -19q-8 -12 -16 -24.5t-16 -24.5t-16.5 -24t-16.5 -25v1q-5 -7 -12.5 -18.5t-10.5 -16.5h-206zM252 504q0 -157 80 -250q78 -90 213 -90q68 0 121 23.5t90 63.5q36 45 56 111.5t20 149.5q0 170 -73 259t-210 89q-138 0 -217 -90q-80 -92 -80 -266z " />
<glyph unicode="&#xf5;" horiz-adv-x="1149" d="M54 506q0 123 35.5 222t101.5 172q68 69 160.5 108t200.5 39q219 0 349 -147q64 -73 96 -169t32 -221q0 -116 -33.5 -211.5t-96.5 -169.5q-63 -73 -154 -112.5t-203 -39.5t-202.5 38t-156.5 113q-63 73 -96 167t-33 211zM252 504q0 -157 80 -250q78 -90 213 -90 q68 0 121 23.5t90 63.5q36 45 56 111.5t20 149.5q0 170 -73 259t-210 89q-138 0 -217 -90q-80 -92 -80 -266zM306 1059q0 81 14.5 139.5t39.5 91.5q29 36 69.5 57t88.5 21q82 0 179 -79q43 -40 68 -40q13 0 21.5 33.5t8.5 97.5h177q0 -72 -15 -129.5t-43 -98t-68 -62 t-89 -21.5q-40 0 -84 21.5t-88 59.5q-39 36 -69 36q-35 0 -35 -127h-175z" />
<glyph unicode="&#xf6;" horiz-adv-x="1149" d="M54 506q0 123 35.5 222t101.5 172q68 69 160.5 108t200.5 39q219 0 349 -147q64 -73 96 -169t32 -221q0 -116 -33.5 -211.5t-96.5 -169.5q-63 -73 -154 -112.5t-203 -39.5t-202.5 38t-156.5 113q-63 73 -96 167t-33 211zM238 1178q0 26 10 47.5t26.5 37t38 24t43.5 8.5 q24 0 46 -8.5t39 -24t27.5 -37t10.5 -47.5q0 -25 -9 -47t-25.5 -38t-38.5 -25t-48 -9q-23 0 -44.5 8.5t-38.5 24t-27 37.5t-10 49zM252 504q0 -157 80 -250q78 -90 213 -90q68 0 121 23.5t90 63.5q36 45 56 111.5t20 149.5q0 170 -73 259t-210 89q-138 0 -217 -90 q-80 -92 -80 -266zM535 1178q0 26 10 47.5t26.5 37t38 24t43.5 8.5q23 0 45.5 -8.5t40 -24t28 -37t10.5 -47.5q0 -25 -10 -47t-26.5 -38t-38.5 -25t-47 -9q-23 0 -44.5 8.5t-38 24t-27 37.5t-10.5 49z" />
<glyph unicode="&#xf7;" horiz-adv-x="951" d="M15 495v185h920v-185h-920zM351 281q0 26 9.5 48.5t26.5 39t39.5 26t49.5 9.5q26 0 48.5 -9.5t39 -26t26 -39t9.5 -48.5t-9.5 -48.5t-26 -40t-39 -27.5t-48.5 -10q-27 0 -49.5 10t-39.5 27.5t-26.5 40t-9.5 48.5zM351 897q0 26 9.5 48.5t26.5 39t39.5 26t49.5 9.5 q26 0 48.5 -9.5t39 -26t26 -39t9.5 -48.5t-9.5 -48.5t-26 -40t-39 -27.5t-48.5 -10q-27 0 -49.5 10t-39.5 27.5t-26.5 40t-9.5 48.5z" />
<glyph unicode="&#xf8;" horiz-adv-x="1227" d="M42 16l156 176q-81 133 -81 314q0 123 35 222.5t100 171.5q70 69 162.5 108t199.5 39q83 0 153.5 -21.5t128.5 -62.5q14 16 31 34.5t31 35.5q10 12 23 26l25 28q12 14 23 27t20 22l138 -123l-169 -188q38 -67 56 -144.5t18 -170.5q0 -116 -33 -212t-96 -169 q-66 -74 -157 -113t-200 -39q-78 0 -148.5 21.5t-129.5 59.5q-8 -9 -16.5 -18t-15.5 -17v1q-9 -10 -18.5 -21.5t-20.5 -22.5v1q-7 -8 -14 -15.5t-14 -15.5q-4 -4 -6.5 -7t-6.5 -7t-10 -11l-12 -13q-6 -6 -11 -12t-8 -9zM314 504q0 -85 25 -156l426 474q-31 18 -70 28t-84 10 q-68 0 -121 -23t-95 -68v1q-81 -92 -81 -266zM455 201q33 -22 70 -29.5t83 -7.5q68 0 121 23.5t90 63.5q36 45 55.5 111.5t19.5 149.5q0 45 -4.5 82t-14.5 72z" />
<glyph unicode="&#xf9;" horiz-adv-x="1096" d="M67 440v584h193v-563q0 -155 48 -226t149 -71q69 -1 125.5 38.5t104.5 117.5v704h194v-1024h-194v69q-56 -48 -117 -71.5t-126 -20.5h1q-378 0 -378 463zM252 1463h232l289 -404h-217z" />
<glyph unicode="&#xfa;" horiz-adv-x="1096" d="M67 440v584h193v-563q0 -155 48 -226t149 -71q69 -1 125.5 38.5t104.5 117.5v704h194v-1024h-194v69q-56 -48 -117 -71.5t-126 -20.5h1q-378 0 -378 463zM337 1059l289 404h232l-307 -404h-214z" />
<glyph unicode="&#xfb;" horiz-adv-x="1096" d="M67 440v584h193v-563q0 -155 48 -226t149 -71q69 -1 125.5 38.5t104.5 117.5v704h194v-1024h-194v69q-56 -48 -117 -71.5t-126 -20.5h1q-378 0 -378 463zM229 1059l269 411h101l267 -411h-209l-111 168q-6 -8 -11.5 -17t-11.5 -19q-8 -12 -16 -24.5t-16 -24.5t-16.5 -24 t-16.5 -25v1q-5 -7 -12.5 -18.5t-10.5 -16.5h-206z" />
<glyph unicode="&#xfc;" horiz-adv-x="1096" d="M67 440v584h193v-563q0 -155 48 -226t149 -71q69 -1 125.5 38.5t104.5 117.5v704h194v-1024h-194v69q-56 -48 -117 -71.5t-126 -20.5h1q-378 0 -378 463zM224 1178q0 26 10 47.5t26.5 37t38 24t43.5 8.5q24 0 46 -8.5t39 -24t27.5 -37t10.5 -47.5q0 -25 -9 -47t-25.5 -38 t-38.5 -25t-48 -9q-23 0 -44.5 8.5t-38.5 24t-27 37.5t-10 49zM521 1178q0 26 10 47.5t26.5 37t38 24t43.5 8.5q23 0 45.5 -8.5t40 -24t28 -37t10.5 -47.5q0 -25 -10 -47t-26.5 -38t-38.5 -25t-47 -9q-23 0 -44.5 8.5t-38 24t-27 37.5t-10.5 49z" />
<glyph unicode="&#xfd;" horiz-adv-x="928" d="M62 1024h208l263 -706q38 98 75.5 194.5t76.5 196.5q14 36 30 76.5t32.5 81.5t32 81t29.5 76h211l-476 -1177q-29 -70 -60.5 -121.5t-69 -85.5t-84 -51t-104.5 -17q-27 0 -62.5 9t-79.5 24l57 189q31 -23 54 -26t35 -3q36 0 67 30.5t55 87.5h-1q8 20 17.5 40t17.5 41 q11 27 21 50t20 48q-4 12 -10 26.5t-11 26.5q-9 24 -18 49.5t-19 50.5q-28 72 -56.5 147.5t-55.5 147.5q-22 57 -47.5 124.5t-51.5 136t-51 134t-45 119.5zM242 1059l289 404h232l-307 -404h-214z" />
<glyph unicode="&#xfe;" horiz-adv-x="988" d="M75 -419v1882h194v-524q14 13 29 24t29 21q54 31 111 47t120 16q97 0 177 -38.5t137 -104.5q52 -66 81 -158t29 -201q0 -122 -32.5 -225t-90.5 -180q-65 -77 -151 -120t-189 -43q-72 0 -135.5 22t-114.5 64v-482h-194zM269 297q72 -133 257 -133q53 0 101 28.5t83 70.5 l-2 -2q34 51 56 124.5t22 157.5q0 74 -18 135t-52 103h1q-32 38 -75 58.5t-95 20.5q-93 -1 -162 -45t-116 -137v-381z" />
<glyph unicode="&#xff;" horiz-adv-x="1014" d="M40 1024h209l263 -705q21 55 42.5 110t42.5 111q9 22 18 43.5t17 43.5q15 38 30.5 77t30.5 77q23 59 47.5 123t47.5 120h211l-478 -1177q-29 -70 -59.5 -121.5t-68 -85.5t-84 -51t-105.5 -17q-26 0 -62.5 9t-78.5 23l68 204q27 -23 45.5 -33t31.5 -10q16 0 32.5 9.5 t32.5 26t31 38t27 45.5v-1l16 38q8 19 16 39v-1q2 7 5 14.5t6 14.5q7 14 12.5 26t7.5 21q4 8 5.5 12.5t5.5 13.5q-8 21 -16.5 43.5t-16.5 42.5l-34 93q-14 33 -26.5 67t-25.5 67q-14 34 -26.5 68.5t-24.5 67.5q-22 57 -48 124.5t-52 136.5t-50.5 134.5t-44.5 118.5z M253 1178q0 26 10 47.5t26.5 37t37.5 24t43 8.5q24 0 46.5 -8.5t39.5 -24t27.5 -37t10.5 -47.5q0 -25 -9.5 -47t-26 -38t-39 -25t-47.5 -9q-23 0 -44 8.5t-38 24t-27 37.5t-10 49zM549 1178q0 26 10 47.5t27 37t38 24t44 8.5t45 -8.5t39.5 -24t28 -37t10.5 -47.5 q0 -25 -9.5 -47t-26 -38t-39 -25t-47.5 -9q-23 0 -44.5 8.5t-38 24t-27 37.5t-10.5 49z" />
<glyph unicode="&#x178;" horiz-adv-x="1106" d="M27 1434h228l317 -656q42 81 84 165t87 169v-1q5 11 10.5 22.5t11.5 23.5q9 17 17 34.5t18 36.5q11 21 22.5 44t23.5 45q14 29 30.5 61.5t28.5 55.5h228l-464 -891v-543h-204v543q-14 30 -29.5 60.5t-29.5 59.5q-4 8 -11 21.5t-10 21.5v-1q-12 24 -25 49t-25 51 q-17 35 -37.5 76.5t-36.5 74.5q-7 14 -17.5 35.5t-17.5 35.5q-22 45 -49 100t-54.5 111t-52.5 107t-43 89zM205 1525q0 26 10 47.5t26.5 37t38 24t43.5 8.5q24 0 46 -8.5t39 -24t27.5 -37t10.5 -47.5q0 -25 -9 -47t-25.5 -38t-38.5 -25t-48 -9q-23 0 -44.5 8.5t-38.5 24 t-27 37.5t-10 49zM502 1525q0 26 10 47.5t26.5 37t38 24t43.5 8.5q23 0 45.5 -8.5t40 -24t28 -37t10.5 -47.5q0 -25 -10 -47t-26.5 -38t-38.5 -25t-47 -9q-23 0 -44.5 8.5t-38 24t-27 37.5t-10.5 49z" />
<glyph unicode="&#x2c6;" horiz-adv-x="699" d="M31 1059l269 411h101l267 -411h-209l-111 168q-6 -8 -11.5 -17t-11.5 -19q-8 -12 -16 -24.5t-16 -24.5t-16.5 -24t-16.5 -25v1q-5 -7 -12.5 -18.5t-10.5 -16.5h-206z" />
<glyph unicode="&#x2dc;" horiz-adv-x="782" d="M59 1059q0 81 14.5 139.5t39.5 91.5q29 36 69.5 57t88.5 21q82 0 179 -79q43 -40 68 -40q13 0 21.5 33.5t8.5 97.5h177q0 -72 -15 -129.5t-43 -98t-68 -62t-89 -21.5q-40 0 -84 21.5t-88 59.5q-39 36 -69 36q-35 0 -35 -127h-175z" />
<glyph unicode="&#x2000;" horiz-adv-x="940" />
<glyph unicode="&#x2001;" horiz-adv-x="1880" />
<glyph unicode="&#x2002;" horiz-adv-x="940" />
<glyph unicode="&#x2003;" horiz-adv-x="1880" />
<glyph unicode="&#x2004;" horiz-adv-x="626" />
<glyph unicode="&#x2005;" horiz-adv-x="470" />
<glyph unicode="&#x2006;" horiz-adv-x="313" />
<glyph unicode="&#x2007;" horiz-adv-x="313" />
<glyph unicode="&#x2008;" horiz-adv-x="235" />
<glyph unicode="&#x2009;" horiz-adv-x="376" />
<glyph unicode="&#x200a;" horiz-adv-x="104" />
<glyph unicode="&#x2010;" horiz-adv-x="743" d="M71 495v191h600v-191h-600z" />
<glyph unicode="&#x2011;" horiz-adv-x="743" d="M71 495v191h600v-191h-600z" />
<glyph unicode="&#x2012;" horiz-adv-x="743" d="M71 495v191h600v-191h-600z" />
<glyph unicode="&#x2013;" horiz-adv-x="1175" d="M75 495v191h1024v-191h-1024z" />
<glyph unicode="&#x2014;" horiz-adv-x="2086" d="M75 495v191h1936v-191h-1936z" />
<glyph unicode="&#x2018;" horiz-adv-x="411" d="M26 878l173 512h181l-142 -512h-212z" />
<glyph unicode="&#x2019;" horiz-adv-x="411" d="M32 878l143 512h212l-177 -512h-178z" />
<glyph unicode="&#x201a;" horiz-adv-x="413" d="M32 -201l143 508h214l-177 -508h-180z" />
<glyph unicode="&#x201c;" horiz-adv-x="662" d="M41 878l173 512h181l-142 -512h-212zM261 878l176 512h179l-143 -512h-212z" />
<glyph unicode="&#x201d;" horiz-adv-x="662" d="M46 878l144 512h213l-179 -512h-178zM266 878l141 512h215l-176 -512h-180z" />
<glyph unicode="&#x201e;" horiz-adv-x="662" d="M46 -204l144 511h213l-178 -511h-179zM267 -204l141 511h214l-176 -511h-179z" />
<glyph unicode="&#x2022;" horiz-adv-x="646" d="M51 690q0 109 81 192q83 79 193 79q57 0 103 -19.5t88 -58.5q78 -81 78 -193q0 -110 -78 -187q-41 -39 -87.5 -59t-103.5 -20q-110 0 -193 80q-81 81 -81 186z" />
<glyph unicode="&#x2026;" horiz-adv-x="1213" d="M70 115q0 27 9.5 50.5t27 40t40.5 26t50 9.5t50 -9.5t40.5 -26t27.5 -40t10 -50.5q0 -29 -10 -52.5t-27.5 -40.5t-40.5 -26.5t-50 -9.5t-50 9.5t-40.5 26.5t-27 40.5t-9.5 52.5zM476 115q0 27 10 50.5t27 40t40 26t50 9.5t50.5 -9.5t41 -26t27.5 -40t10 -50.5 q0 -29 -10 -52.5t-27.5 -40.5t-41 -26.5t-50.5 -9.5t-50 9.5t-40 26.5t-27 40.5t-10 52.5zM887 115q0 27 9.5 50.5t27 40t40.5 26t50 9.5q26 0 49.5 -9.5t41.5 -26t28.5 -40t10.5 -50.5q0 -29 -10.5 -52.5t-28.5 -40.5t-41.5 -26.5t-49.5 -9.5q-27 0 -50 9.5t-40.5 26.5 t-27 40.5t-9.5 52.5z" />
<glyph unicode="&#x202f;" horiz-adv-x="376" />
<glyph unicode="&#x2039;" horiz-adv-x="612" d="M20 536l293 361h244l-295 -361q13 -17 27 -33.5t28 -33.5q8 -11 16.5 -21.5t16.5 -20.5q20 -24 49 -58.5t58.5 -70.5t56 -68.5t42.5 -51.5h-241z" />
<glyph unicode="&#x203a;" horiz-adv-x="613" d="M54 178l301 363q-37 44 -79 92.5t-81 93.5q-7 8 -15 17t-16 19v-1q-11 13 -26.5 32.5t-31.5 39t-30 37t-21 26.5h246l292 -356l-290 -363h-249z" />
<glyph unicode="&#x205f;" horiz-adv-x="470" />
<glyph unicode="&#x20ac;" horiz-adv-x="1002" d="M32 446v186h119v60v39h-119v186h142q21 109 62.5 196t101.5 152q69 70 151 108t179 38q64 0 130 -18t135 -50v-224q-89 52 -156.5 78.5t-114.5 26.5q-52 0 -100 -23.5t-86 -64.5l1 1q-34 -41 -60 -93t-43 -127h471v-186h-497v-92q0 -3 0 -2v1v-6h497v-186h-472 q15 -65 39.5 -116t53.5 -87q36 -34 82 -56.5t93 -22.5q92 0 292 133v-225q-157 -95 -300 -95q-91 0 -169.5 36t-141.5 102q-54 59 -93.5 143.5t-58.5 187.5h-138z" />
<glyph unicode="&#x2122;" horiz-adv-x="1407" d="M56 1208v182h581v-182h-200v-520h-183v520h-198zM612 688v702h195l165 -400q9 23 19 46t21 46q7 15 13 30.5t14 31.5q7 17 15.5 37t15.5 37q9 19 19 42t20 45.5t19 44.5t17 40h187v-702h-185v257q-8 -17 -15.5 -33.5t-15.5 -33.5t-16 -35t-16 -37q-7 -14 -14 -30.5 t-14 -32.5q-5 -11 -11.5 -27.5t-11.5 -27.5h-134l-104 251v-251h-183z" />
<glyph unicode="&#x25fc;" horiz-adv-x="1025" d="M0 0v1025h1025v-1025h-1025z" />
<glyph unicode="&#xfb03;" horiz-adv-x="1427" d="M47 838v186h164v103q0 167 88 258q45 46 101 69t120 23q67 0 204 -66l-87 -176q-35 26 -66 41t-55 15q-111 0 -111 -172v-95h310v103q0 81 22.5 146.5t64.5 111.5q45 45 101 68.5t122 23.5q68 0 203 -66l-87 -175q-36 26 -66 40.5t-54 14.5q-112 0 -112 -172v-95h452 v-1024h-192v838h-260v-838h-194v838h-310v-838h-194v838h-164z" />
<glyph unicode="&#xfb04;" horiz-adv-x="1659" d="M50 838v186h165v103q0 166 87 258q90 92 222 92q71 0 204 -65l-89 -176q-35 26 -65 40.5t-53 14.5q-113 0 -113 -172v-95h312v103q0 81 22.5 146.5t64.5 111.5q45 45 100.5 68.5t121.5 23.5q303 0 338 -229v-957q0 -65 17 -94.5t59 -29.5q19 0 59 18t106 56v-208 q-54 -27 -98 -39t-78 -12q-258 0 -258 299v951q-14 26 -51.5 42.5t-96.5 16.5q-113 0 -113 -172v-95h242v-186h-242v-838h-193v838h-312v-838h-193v838h-165z" />
</font>
</defs>
</svg>
